<?xml version="1.0" standalone="no"?>
<!DOCTYPE svg PUBLIC "-//W3C//DTD SVG 1.1//EN" "http://www.w3.org/Graphics/SVG/1.1/DTD/svg11.dtd" >
<svg xmlns="http://www.w3.org/2000/svg">
<defs>
  <font id="Google Glyph Icons" horiz-adv-x="256">
    <font-face font-family="Google Glyph Icons"
      units-per-em="256" ascent="256"
      descent="0" />
    <missing-glyph horiz-adv-x="0" />
    <glyph glyph-name="ic_3d_rotation_24px"
      unicode="&#xEA01;"
      horiz-adv-x="256" d="M80.2133333333333 26.88C45.3333333333333 43.3066666666667 20.3733333333333 77.2266666666667 16.5333333333333 117.3333333333334H0.5333333333333C5.9733333333333 51.6266666666667 60.9066666666667 0 128 0L135.04 0.32L94.4 40.96L80.2133333333333 26.88zM89.7066666666667 96.4266666666667C87.68 96.4266666666667 85.76 96.7466666666666 84.16 97.28C82.4533333333333 97.92 81.0666666666667 98.6666666666666 79.8933333333333 99.84C78.72 100.9066666666666 77.76 102.1866666666666 77.12 103.7866666666666C76.48 105.28 76.16 106.9866666666666 76.16 108.8H62.2933333333333C62.2933333333333 104.96 63.04 101.5466666666666 64.5333333333333 98.6666666666666C66.0266666666667 95.7866666666666 68.0533333333333 93.3333333333333 70.5066666666667 91.3066666666666C73.0666666666667 89.3866666666666 75.9466666666667 87.8933333333333 79.2533333333333 86.9333333333333C82.4533333333333 85.8666666666666 85.8666666666667 85.3333333333333 89.4933333333333 85.3333333333333C93.44 85.3333333333333 97.1733333333333 85.8666666666666 100.48 86.9333333333333C103.8933333333333 87.9999999999999 106.88 89.5999999999999 109.3333333333333 91.6266666666666S113.8133333333333 96.2133333333333 115.2 99.3066666666666C116.5866666666667 102.4 117.3333333333333 105.8133333333333 117.3333333333333 109.6533333333333C117.3333333333333 111.68 117.12 113.7066666666666 116.5866666666667 115.6266666666666C116.0533333333333 117.5466666666666 115.3066666666667 119.3599999999999 114.1333333333333 121.0666666666666C113.0666666666667 122.7733333333333 111.5733333333333 124.2666666666666 109.8666666666667 125.6533333333333C108.0533333333333 127.0399999999999 105.92 128.1066666666666 103.36 128.96C105.4933333333333 129.92 107.3066666666667 131.0933333333333 108.9066666666667 132.48C110.5066666666667 133.8666666666666 111.7866666666667 135.36 112.8533333333334 136.96C113.92 138.56 114.6666666666667 140.16 115.2 141.8666666666666C115.7333333333333 143.5733333333333 115.9466666666667 145.28 115.9466666666667 146.9866666666666C115.9466666666667 150.8266666666666 115.3066666666667 154.24 114.0266666666667 157.2266666666666C112.7466666666667 160.2133333333333 110.9333333333333 162.6666666666666 108.5866666666667 164.5866666666666C106.4533333333333 166.6133333333333 103.5733333333333 168.1066666666666 100.3733333333333 169.1733333333333C97.0666666666667 170.1333333333333 93.44 170.6666666666667 89.4933333333333 170.6666666666667C85.6533333333333 170.6666666666667 82.1333333333333 170.1333333333333 78.8266666666667 168.96C75.6266666666667 167.7866666666667 72.7466666666667 166.1866666666667 70.4 164.16C68.16 162.1333333333333 66.3466666666667 159.7866666666667 64.96 157.0133333333334C63.68 154.24 63.04 151.2533333333333 63.04 147.9466666666667H76.9066666666667C76.9066666666667 149.76 77.2266666666667 151.36 77.8666666666667 152.7466666666667S79.36 155.4133333333334 80.5333333333333 156.3733333333333C81.7066666666667 157.3333333333334 82.9866666666667 158.1866666666667 84.5866666666667 158.72C86.1866666666667 159.2533333333333 87.7866666666667 159.5733333333334 89.7066666666667 159.5733333333334C93.9733333333333 159.5733333333334 97.1733333333333 158.5066666666667 99.2 156.2666666666667C101.2266666666667 154.1333333333333 102.2933333333333 151.04 102.2933333333333 147.0933333333334C102.2933333333333 145.1733333333334 101.9733333333333 143.4666666666667 101.44 141.8666666666667C100.9066666666667 140.2666666666667 99.9466666666667 138.9866666666667 98.7733333333333 137.92C97.6 136.8533333333334 96.1066666666666 136 94.4 135.36C92.6933333333333 134.72 90.56 134.4 88.2133333333333 134.4H80V123.4133333333333H88.2133333333333C90.56 123.4133333333333 92.6933333333333 123.2 94.6133333333334 122.6666666666667S98.1333333333333 121.28 99.4133333333333 120.2133333333333C100.6933333333333 119.04 101.76 117.6533333333333 102.5066666666667 115.9466666666666C103.2533333333334 114.24 103.5733333333333 112.2133333333333 103.5733333333333 109.8666666666666C103.5733333333333 105.4933333333333 102.2933333333333 102.1866666666666 99.84 99.9466666666666C97.3866666666667 97.4933333333333 93.9733333333333 96.4266666666666 89.7066666666667 96.4266666666666zM180.9066666666667 159.5733333333333C177.4933333333333 163.0933333333333 173.44 165.8666666666667 168.7466666666667 167.7866666666666C164.16 169.7066666666667 158.9333333333333 170.6666666666666 153.1733333333333 170.6666666666666H128V85.3333333333333H152.5333333333333C158.4 85.3333333333333 163.84 86.2933333333333 168.64 88.2133333333333C173.44 90.1333333333333 177.6 92.8 181.0133333333333 96.32C184.4266666666667 99.84 187.0933333333333 104.1066666666666 188.9066666666667 109.0133333333333C190.72 114.0266666666666 191.68 119.5733333333333 191.68 125.76V130.0266666666667C191.68 136.2133333333333 190.72 141.76 188.9066666666667 146.7733333333333C186.9866666666667 151.7866666666666 184.32 156.0533333333333 180.9066666666667 159.5733333333333zM176.7466666666667 125.8666666666667C176.7466666666667 121.3866666666667 176.2133333333333 117.44 175.2533333333333 113.8133333333333C174.1866666666667 110.2933333333333 172.6933333333333 107.2 170.6666666666666 104.7466666666666C168.64 102.2933333333333 166.08 100.3733333333333 163.0933333333333 99.0933333333333C160 97.8133333333333 156.48 97.1733333333333 152.5333333333333 97.1733333333333H142.8266666666666V158.72H153.1733333333333C160.8533333333333 158.72 166.72 156.2666666666667 170.6666666666666 151.36C174.72 146.4533333333334 176.7466666666667 139.4133333333334 176.7466666666667 130.1333333333334V125.8666666666667zM128 256L120.96 255.68L161.6 215.04L175.7866666666667 229.2266666666667C210.6666666666667 212.6933333333333 235.6266666666667 178.88 239.36 138.7733333333334H255.36C250.0266666666667 204.3733333333333 195.0933333333333 256 128 256z" />
    <glyph glyph-name="ic_3d_rotation_48px"
      unicode="&#xEA02;"
      horiz-adv-x="256" d="M80.16 26.8266666666667C45.3333333333333 43.36 20.32 77.2266666666667 16.5333333333333 117.3333333333334H0.5333333333333C5.9733333333333 51.6266666666667 60.9066666666667 0 128 0C130.4 0 132.6933333333333 0.2133333333333 135.04 0.3733333333333L94.4 41.0666666666667L80.16 26.8266666666667zM89.6533333333333 96.4266666666667C87.6266666666667 96.4266666666667 85.76 96.6933333333334 84.0533333333333 97.3333333333333C82.4 97.92 80.96 98.7733333333333 79.7866666666667 99.84C78.6133333333334 100.9066666666667 77.7066666666667 102.24 77.0666666666667 103.7333333333334C76.4266666666667 105.28 76.1066666666667 106.9333333333333 76.1066666666667 108.7466666666667H62.24C62.24 104.9066666666667 62.9866666666667 101.5466666666667 64.48 98.6133333333334C65.9733333333334 95.68 67.9466666666667 93.2266666666667 70.4533333333334 91.3066666666667C72.96 89.3333333333333 75.84 87.8933333333334 79.1466666666667 86.88C82.4533333333334 85.8133333333333 85.8666666666667 85.3333333333333 89.4933333333333 85.3333333333333C93.44 85.3333333333333 97.12 85.8666666666667 100.5333333333333 86.9333333333333C103.9466666666667 88 106.88 89.6 109.3866666666667 91.68S113.8133333333333 96.32 115.2533333333333 99.36C116.64 102.4 117.3866666666667 105.8666666666667 117.3866666666667 109.76C117.3866666666667 111.84 117.12 113.8133333333334 116.64 115.7333333333334C116.1066666666667 117.6533333333333 115.3066666666667 119.4666666666667 114.24 121.1733333333334C113.12 122.88 111.68 124.3733333333333 109.92 125.76C108.16 127.0933333333334 105.9733333333333 128.2133333333334 103.4666666666667 129.12C105.6 130.08 107.4666666666667 131.2533333333334 109.0666666666667 132.64C110.6666666666666 134.0266666666667 112 135.52 113.0666666666667 137.0666666666667C114.1333333333333 138.6666666666667 114.9333333333333 140.2666666666667 115.4666666666667 141.9733333333334C116 143.68 116.2666666666667 145.3866666666667 116.2666666666667 147.04C116.2666666666667 150.9333333333333 115.6266666666667 154.3466666666667 114.3466666666667 157.28C113.0666666666667 160.2133333333334 111.2533333333333 162.6666666666667 108.9066666666667 164.64C106.56 166.6133333333334 103.7866666666667 168.1066666666667 100.48 169.12C97.0666666666667 170.1866666666667 93.44 170.6666666666667 89.4933333333333 170.6666666666667C85.6533333333333 170.6666666666667 82.08 170.08 78.8266666666667 168.96C75.5733333333333 167.84 72.8 166.24 70.4533333333333 164.2133333333334C68.1066666666667 162.1866666666667 66.2933333333333 159.7866666666667 64.96 157.0133333333333C63.6266666666667 154.24 62.9866666666666 151.2 62.9866666666666 147.9466666666667H76.8533333333333C76.8533333333333 149.76 77.1733333333333 151.36 77.8133333333333 152.7466666666667C78.4533333333333 154.1866666666667 79.36 155.4133333333334 80.48 156.3733333333333C81.6 157.3866666666667 82.9866666666666 158.1866666666667 84.5333333333333 158.72C86.08 159.2533333333333 87.7866666666666 159.5733333333333 89.6 159.5733333333333C93.8666666666666 159.5733333333333 97.0133333333333 158.4533333333333 99.0933333333333 156.2666666666667C101.1733333333333 154.08 102.1866666666666 150.9866666666667 102.1866666666666 147.04C102.1866666666666 145.12 101.92 143.4133333333333 101.3333333333333 141.8666666666667C100.7466666666666 140.32 99.8933333333333 138.9866666666667 98.72 137.8666666666667C97.5466666666666 136.7466666666667 96.0533333333333 135.8933333333333 94.3466666666666 135.2533333333333C92.5866666666666 134.6133333333334 90.5066666666666 134.2933333333334 88.16 134.2933333333334H79.9466666666666V123.36H88.16C90.5066666666666 123.36 92.64 123.0933333333333 94.5066666666666 122.56C96.3733333333333 122.0266666666667 97.9733333333333 121.2266666666667 99.3066666666666 120.0533333333334C100.64 118.9333333333333 101.6533333333333 117.4933333333334 102.4 115.7866666666667C103.0933333333333 114.08 103.4666666666666 112.0533333333333 103.4666666666666 109.7066666666667C103.4666666666666 105.3866666666667 102.24 102.08 99.7333333333333 99.7866666666667C97.3333333333333 97.5466666666667 93.9733333333333 96.4266666666667 89.6533333333333 96.4266666666667zM180.96 159.6266666666667C177.6 163.1466666666667 173.5466666666667 165.8666666666667 168.8533333333334 167.7866666666667C164.1066666666667 169.7066666666667 158.9333333333334 170.6666666666667 153.2266666666667 170.6666666666667H128V85.3333333333333H152.48C158.4 85.3333333333333 163.7333333333333 86.2933333333333 168.5866666666667 88.2133333333333C173.44 90.1333333333333 177.5466666666667 92.8533333333333 180.96 96.3733333333333C184.3733333333333 99.8933333333333 187.04 104.16 188.8533333333333 109.12C190.72 114.08 191.6266666666667 119.68 191.6266666666667 125.8666666666667V130.08C191.6266666666667 136.2666666666667 190.6666666666667 141.8133333333333 188.8 146.8266666666667C186.9333333333333 151.84 184.32 156.1066666666667 180.96 159.6266666666667zM176.7466666666667 125.8133333333333C176.7466666666667 121.3866666666667 176.2666666666667 117.3333333333334 175.2 113.8133333333333C174.1866666666667 110.24 172.6933333333334 107.2533333333333 170.6666666666667 104.8C168.64 102.3466666666667 166.1333333333334 100.48 163.0933333333334 99.1466666666667C160.0533333333334 97.8666666666667 156.5333333333334 97.1733333333334 152.48 97.1733333333334H142.8266666666667V158.72H153.2266666666667C160.9066666666667 158.72 166.72 156.2666666666667 170.7733333333334 151.4133333333334C174.7733333333334 146.5066666666667 176.8000000000001 139.4666666666667 176.8000000000001 130.1866666666667V125.8133333333333zM128 256C125.6 256 123.3066666666667 255.7866666666667 120.96 255.6266666666667L161.6 214.9333333333333L175.7866666666667 229.12C210.6666666666667 212.64 235.68 178.7733333333334 239.4666666666667 138.6666666666667H255.4666666666667C250.0266666666667 204.3733333333333 195.0933333333333 256 128 256z" />
    <glyph glyph-name="ic_ac_unit_24px"
      unicode="&#xEA04;"
      horiz-adv-x="256" d="M234.6666666666667 138.6666666666667H190.1866666666667L224.7466666666667 173.2266666666667L209.7066666666667 188.3733333333333L160 138.6666666666667H138.6666666666667V160L188.3733333333333 209.7066666666667L173.2266666666667 224.7466666666667L138.6666666666667 190.1866666666667V234.6666666666667H117.3333333333333V190.1866666666667L82.7733333333333 224.7466666666667L67.6266666666667 209.7066666666667L117.3333333333333 160V138.6666666666667H96L46.2933333333333 188.3733333333333L31.2533333333333 173.2266666666667L65.8133333333333 138.6666666666667H21.3333333333333V117.3333333333334H65.8133333333333L31.2533333333333 82.7733333333333L46.2933333333333 67.6266666666667L96 117.3333333333334H117.3333333333333V96L67.6266666666667 46.2933333333334L82.7733333333333 31.2533333333334L117.3333333333333 65.8133333333334V21.3333333333333H138.6666666666667V65.8133333333333L173.2266666666667 31.2533333333333L188.3733333333333 46.2933333333333L138.6666666666667 96V117.3333333333334H160L209.7066666666667 67.6266666666667L224.7466666666667 82.7733333333333L190.1866666666667 117.3333333333334H234.6666666666667z" />
    <glyph glyph-name="ic_ac_unit_48px"
      unicode="&#xEA03;"
      horiz-adv-x="256" d="M234.6666666666667 138.6666666666667H190.1866666666667L224.7466666666667 173.28L209.6533333333333 188.32L160 138.6666666666667H138.6666666666667V160L188.32 209.6533333333333L173.28 224.7466666666667L138.6666666666667 190.1866666666667V234.6666666666667H117.3333333333333V190.1866666666667L82.72 224.7466666666667L67.68 209.6533333333333L117.3333333333333 160V138.6666666666667H96L46.3466666666667 188.32L31.2533333333333 173.28L65.8133333333333 138.6666666666667H21.3333333333333V117.3333333333334H65.8133333333333L31.2533333333333 82.72L46.3466666666667 67.68L96 117.3333333333334H117.3333333333333V96L67.68 46.3466666666667L82.72 31.2533333333333L117.3333333333333 65.8133333333334V21.3333333333333H138.6666666666667V65.8133333333333L173.28 31.2533333333333L188.32 46.3466666666667L138.6666666666667 96V117.3333333333334H160L209.6533333333333 67.68L224.7466666666667 82.72L190.1866666666667 117.3333333333334H234.6666666666667z" />
    <glyph glyph-name="ic_access_alarm_24px"
      unicode="&#xEA05;"
      horiz-adv-x="256" d="M234.6666666666667 194.9866666666667L185.6 236.16L171.84 219.84L220.9066666666667 178.6666666666667L234.6666666666667 194.9866666666667zM84.0533333333333 219.84L70.4 236.16L21.3333333333333 195.0933333333333L35.0933333333333 178.7733333333334L84.0533333333333 219.84zM133.3333333333333 170.6666666666667H117.3333333333333V106.6666666666667L168 76.2666666666667L176 89.3866666666667L133.3333333333334 114.6666666666667V170.6666666666667zM128 213.3333333333334C74.9866666666667 213.3333333333334 32 170.3466666666667 32 117.3333333333334S74.88 21.3333333333333 128 21.3333333333333C181.0133333333333 21.3333333333333 224 64.32 224 117.3333333333334S181.0133333333333 213.3333333333334 128 213.3333333333334zM128 42.6666666666667C86.72 42.6666666666667 53.3333333333333 76.0533333333333 53.3333333333333 117.3333333333334S86.72 192 128 192S202.6666666666667 158.6133333333334 202.6666666666667 117.3333333333334S169.28 42.6666666666667 128 42.6666666666667z" />
    <glyph glyph-name="ic_access_alarm_48px"
      unicode="&#xEA06;"
      horiz-adv-x="256" d="M234.6666666666667 194.9866666666667L185.6533333333333 236.1066666666667L171.9466666666667 219.7866666666667L220.96 178.6666666666667L234.6666666666667 194.9866666666667zM84.0533333333333 219.84L70.3466666666667 236.16L21.3333333333333 195.04L35.04 178.72L84.0533333333333 219.84zM133.3333333333333 170.6666666666667H117.3333333333333V106.6666666666667L167.9466666666667 76.2133333333334L176 89.3866666666667L133.3333333333334 114.6666666666667V170.6666666666667zM127.9466666666667 213.3333333333334C74.88 213.3333333333334 32 170.3466666666667 32 117.3333333333334S74.88 21.3333333333333 127.9466666666667 21.3333333333333S224 64.32 224 117.3333333333334S181.0133333333333 213.3333333333334 127.9466666666667 213.3333333333334zM128 42.6666666666667C86.7733333333333 42.6666666666667 53.3333333333333 76.1066666666667 53.3333333333333 117.3333333333334S86.7733333333333 192 128 192S202.6666666666667 158.56 202.6666666666667 117.3333333333334S169.28 42.6666666666667 128 42.6666666666667z" />
    <glyph glyph-name="ic_access_alarms_24px"
      unicode="&#xEA07;"
      horiz-adv-x="256" d="M234.6666666666667 195.2L185.6 236.8L171.7333333333333 220.8L220.8 179.2L234.6666666666667 195.2zM84.2666666666667 219.7333333333334L70.4 235.7333333333334L21.3333333333333 195.2L35.2 179.2L84.2666666666667 219.7333333333334zM133.3333333333333 170.6666666666667H117.3333333333333V106.6666666666667L167.4666666666667 75.7333333333334L176 88.5333333333334L133.3333333333334 114.1333333333334V170.6666666666667zM128 213.3333333333334C74.6666666666667 213.3333333333334 32 170.6666666666667 32 117.3333333333334S74.6666666666667 21.3333333333333 128 21.3333333333333S224 64 224 117.3333333333334S181.3333333333334 213.3333333333334 128 213.3333333333334zM128 42.6666666666667C86.4 42.6666666666667 53.3333333333333 75.7333333333334 53.3333333333333 117.3333333333334S86.4 192 128 192S202.6666666666667 158.9333333333333 202.6666666666667 117.3333333333334S169.6 42.6666666666667 128 42.6666666666667z" />
    <glyph glyph-name="ic_access_alarms_48px"
      unicode="&#xEA08;"
      horiz-adv-x="256" d="M234.6666666666667 194.6666666666667L185.6 235.7333333333334L171.7333333333333 219.2L220.8 178.1333333333333L234.6666666666667 194.6666666666667zM83.7333333333333 219.7333333333334L69.8666666666667 236.2666666666667L21.3333333333333 194.6666666666667L35.2 178.1333333333333L83.7333333333333 219.7333333333334zM133.3333333333333 170.6666666666667H117.3333333333333V106.6666666666667L168 76.2666666666667L176 89.6L133.3333333333333 114.6666666666667V170.6666666666667zM128 213.3333333333334C74.6666666666667 213.3333333333334 32 170.1333333333333 32 117.3333333333334S74.6666666666667 21.3333333333333 128 21.3333333333333C180.8 21.3333333333333 224 64.5333333333333 224 117.3333333333334S180.8 213.3333333333334 128 213.3333333333334zM128 42.6666666666667C86.9333333333333 42.6666666666667 53.3333333333333 76.2666666666667 53.3333333333333 117.3333333333334S86.9333333333333 192 128 192S202.6666666666666 158.4 202.6666666666666 117.3333333333334C202.6666666666666 75.7333333333334 169.0666666666666 42.6666666666667 128 42.6666666666667z" />
    <glyph glyph-name="ic_access_time_24px"
      unicode="&#xEA09;"
      horiz-adv-x="256" d="M127.8933333333333 234.6666666666667C69.0133333333333 234.6666666666667 21.3333333333333 186.88 21.3333333333333 128S69.0133333333333 21.3333333333333 127.8933333333333 21.3333333333333C186.88 21.3333333333333 234.6666666666667 69.12 234.6666666666667 128S186.88 234.6666666666667 127.8933333333333 234.6666666666667zM128 42.6666666666667C80.8533333333333 42.6666666666667 42.6666666666667 80.8533333333334 42.6666666666667 128S80.8533333333333 213.3333333333334 128 213.3333333333334S213.3333333333333 175.1466666666667 213.3333333333333 128S175.1466666666667 42.6666666666667 128 42.6666666666667zM133.3333333333334 181.3333333333334H117.3333333333333V117.3333333333334L173.3333333333333 83.7333333333334L181.3333333333333 96.8533333333334L133.3333333333333 125.3333333333334z" />
    <glyph glyph-name="ic_access_time_48px"
      unicode="&#xEA0A;"
      horiz-adv-x="256" d="M127.9466666666667 234.6666666666667C69.0133333333333 234.6666666666667 21.3333333333333 186.9333333333333 21.3333333333333 128S69.0133333333333 21.3333333333333 127.9466666666667 21.3333333333333C186.88 21.3333333333333 234.6666666666667 69.0666666666667 234.6666666666667 128S186.88 234.6666666666667 127.9466666666667 234.6666666666667zM128 42.6666666666667C80.8533333333333 42.6666666666667 42.6666666666667 80.8533333333334 42.6666666666667 128S80.8533333333333 213.3333333333334 128 213.3333333333334S213.3333333333333 175.1466666666667 213.3333333333333 128S175.1466666666667 42.6666666666667 128 42.6666666666667zM133.3333333333334 181.3333333333334H117.3333333333334V117.3333333333334L173.28 83.7333333333334L181.3333333333333 96.8533333333334L133.3333333333333 125.3333333333334z" />
    <glyph glyph-name="ic_accessibility_24px"
      unicode="&#xEA0B;"
      horiz-adv-x="256" d="M128 234.6666666666667C139.7333333333334 234.6666666666667 149.3333333333334 225.0666666666667 149.3333333333334 213.3333333333334S139.7333333333334 192 128 192S106.6666666666667 201.6 106.6666666666667 213.3333333333333S116.2666666666667 234.6666666666667 128 234.6666666666667zM224 160H160V21.3333333333334H138.6666666666667V85.3333333333334H117.3333333333333V21.3333333333334H96V160H32V181.3333333333334H224V160z" />
    <glyph glyph-name="ic_accessibility_48px"
      unicode="&#xEA0C;"
      horiz-adv-x="256" d="M128 234.6666666666667C139.7866666666667 234.6666666666667 149.3333333333334 225.12 149.3333333333334 213.3333333333334S139.7866666666667 192 128 192S106.6666666666667 201.5466666666667 106.6666666666667 213.3333333333333S116.2133333333334 234.6666666666667 128 234.6666666666667zM224 160H160V21.3333333333334H138.6666666666667V85.3333333333333H117.3333333333333V21.3333333333333H96V160H32V181.3333333333333H224V160z" />
    <glyph glyph-name="ic_accessible_24px"
      unicode="&#xEA0D;"
      horiz-adv-x="256" d="M106.6666666666667 213.3333333333334A21.333333333333332 21.333333333333332 0 0 1 149.3333333333333 213.3333333333334A21.333333333333332 21.333333333333332 0 0 1 106.6666666666667 213.3333333333334M202.6666666666667 117.3333333333334V138.6666666666667C186.24 138.4533333333333 169.7066666666667 146.6666666666667 159.2533333333333 158.1866666666667L145.4933333333334 173.44C143.68 175.4666666666667 141.44 177.0666666666667 138.9866666666667 178.24C138.88 178.24 138.88 178.3466666666667 138.7733333333334 178.3466666666667H138.6666666666667C134.9333333333333 180.48 130.6666666666667 181.5466666666667 125.9733333333333 181.12C114.7733333333333 180.16 106.6666666666667 170.24 106.6666666666667 159.04V96C106.6666666666667 84.2666666666667 116.2666666666667 74.6666666666667 128 74.6666666666667H181.3333333333333V21.3333333333333H202.6666666666667V80C202.6666666666667 91.7333333333333 193.0666666666667 101.3333333333333 181.3333333333333 101.3333333333333H149.3333333333333V138.1333333333333C163.0933333333333 126.72 184 117.44 202.6666666666666 117.3333333333333zM136.8533333333333 64C132.48 51.6266666666667 120.64 42.6666666666667 106.6666666666667 42.6666666666667C88.96 42.6666666666667 74.6666666666667 56.96 74.6666666666667 74.6666666666667C74.6666666666667 88.64 83.6266666666667 100.3733333333333 96 104.8533333333333V126.9333333333333C71.68 122.0266666666667 53.3333333333333 100.48 53.3333333333333 74.6666666666667C53.3333333333333 45.2266666666667 77.2266666666667 21.3333333333334 106.6666666666667 21.3333333333334C132.48 21.3333333333334 154.0266666666667 39.68 158.9333333333333 64H136.8533333333334z" />
    <glyph glyph-name="ic_accessible_48px"
      unicode="&#xEA0E;"
      horiz-adv-x="256" d="M106.6666666666667 213.3333333333334A21.333333333333332 21.333333333333332 0 0 1 149.3333333333333 213.3333333333334A21.333333333333332 21.333333333333332 0 0 1 106.6666666666667 213.3333333333334M202.6666666666667 117.3333333333334V138.6666666666667C186.2933333333333 138.4533333333333 169.7066666666667 146.6666666666667 159.2533333333333 158.24L145.44 173.4933333333334C143.5733333333333 175.52 141.3333333333334 177.12 138.9333333333333 178.3466666666667C138.8266666666667 178.4 138.7733333333334 178.4533333333334 138.72 178.5066666666667H138.6133333333334C134.9333333333333 180.64 130.56 181.7066666666667 125.92 181.2266666666667C114.8266666666667 180.16 106.6666666666667 170.1866666666667 106.6666666666667 159.04V96C106.6666666666667 84.2133333333333 116.2133333333334 74.6666666666667 128 74.6666666666667H181.3333333333334V21.3333333333333H202.6666666666667V80C202.6666666666667 91.7866666666667 193.1200000000001 101.3333333333333 181.3333333333334 101.3333333333333H149.3333333333334V138.1333333333333C163.0933333333334 126.7733333333334 183.9466666666667 117.3866666666667 202.6666666666667 117.3333333333334zM136.8 64C132.4266666666667 51.5733333333333 120.5866666666667 42.6666666666667 106.6666666666667 42.6666666666667C89.0133333333333 42.6666666666667 74.6666666666667 57.0133333333333 74.6666666666667 74.6666666666667C74.6666666666667 88.5866666666667 83.5733333333333 100.4266666666667 96 104.8V126.9333333333333C71.68 121.9733333333333 53.3333333333333 100.48 53.3333333333333 74.6666666666667C53.3333333333333 45.2266666666667 77.2266666666667 21.3333333333334 106.6666666666667 21.3333333333334C132.48 21.3333333333334 153.9733333333333 39.68 158.9333333333333 64H136.8z" />
    <glyph glyph-name="ic_account_balance_24px"
      unicode="&#xEA0F;"
      horiz-adv-x="256" d="M42.6666666666667 149.3333333333334V74.6666666666667H74.6666666666667V149.3333333333334H42.6666666666667zM106.6666666666667 149.3333333333334V74.6666666666667H138.6666666666667V149.3333333333334H106.6666666666667zM21.3333333333333 21.3333333333333H224V53.3333333333333H21.3333333333333V21.3333333333333zM170.6666666666667 149.3333333333334V74.6666666666667H202.6666666666667V149.3333333333334H170.6666666666667zM122.6666666666667 245.3333333333334L21.3333333333333 192V170.6666666666667H224V192L122.6666666666667 245.3333333333333z" />
    <glyph glyph-name="ic_account_balance_48px"
      unicode="&#xEA10;"
      horiz-adv-x="256" d="M42.6666666666667 149.3333333333334V74.6666666666667H74.6666666666667V149.3333333333334H42.6666666666667zM106.6666666666667 149.3333333333334V74.6666666666667H138.6666666666667V149.3333333333334H106.6666666666667zM21.3333333333333 21.3333333333333H224V53.3333333333333H21.3333333333333V21.3333333333333zM170.6666666666667 149.3333333333334V74.6666666666667H202.6666666666667V149.3333333333334H170.6666666666667zM122.6666666666667 245.3333333333334L21.3333333333333 192V170.6666666666667H224V192L122.6666666666667 245.3333333333334z" />
    <glyph glyph-name="ic_account_balance_wallet_24px"
      unicode="&#xEA11;"
      horiz-adv-x="256" d="M224 64V53.3333333333333C224 41.6 214.4 32 202.6666666666667 32H53.3333333333333C41.4933333333333 32 32 41.6 32 53.3333333333333V202.6666666666667C32 214.4 41.4933333333333 224 53.3333333333333 224H202.6666666666666C214.4 224 224 214.4 224 202.6666666666667V192H128C116.16 192 106.6666666666666 182.4 106.6666666666666 170.6666666666667V85.3333333333333C106.6666666666666 73.6 116.16 64 128 64H224zM128 85.3333333333333H234.6666666666667V170.6666666666667H128V85.3333333333333zM170.6666666666667 112C161.8133333333333 112 154.6666666666667 119.1466666666667 154.6666666666667 128S161.8133333333333 144 170.6666666666667 144S186.6666666666667 136.8533333333334 186.6666666666667 128S179.52 112 170.6666666666667 112z" />
    <glyph glyph-name="ic_account_balance_wallet_48px"
      unicode="&#xEA12;"
      horiz-adv-x="256" d="M224 64V53.3333333333333C224 41.5466666666667 214.4533333333333 32 202.6666666666667 32H53.3333333333333C41.5466666666667 32 32 41.5466666666667 32 53.3333333333333V202.6666666666667C32 214.4533333333333 41.5466666666667 224 53.3333333333333 224H202.6666666666666C214.4533333333333 224 224 214.4533333333333 224 202.6666666666667V192H128C116.2133333333334 192 106.6666666666667 182.4533333333334 106.6666666666667 170.6666666666667V85.3333333333333C106.6666666666667 73.5466666666667 116.2133333333334 64 128 64H224zM128 85.3333333333333H234.6666666666667V170.6666666666667H128V85.3333333333333zM170.6666666666667 112C161.8133333333333 112 154.6666666666667 119.1466666666667 154.6666666666667 128S161.8133333333333 144 170.6666666666667 144S186.6666666666667 136.8533333333334 186.6666666666667 128S179.52 112 170.6666666666667 112z" />
    <glyph glyph-name="ic_account_box_18px"
      unicode="&#xEA13;"
      horiz-adv-x="256" d="M213.3333333333333 227.5555555555556H42.6666666666667C34.8444444444444 227.5555555555556 28.4444444444444 221.1555555555556 28.4444444444444 213.3333333333334V42.6666666666667C28.4444444444444 34.8444444444445 34.8444444444444 28.4444444444445 42.6666666666667 28.4444444444445H213.3333333333333C221.1555555555555 28.4444444444445 227.5555555555556 34.8444444444445 227.5555555555556 42.6666666666667V213.3333333333334C227.5555555555556 221.1555555555556 221.1555555555555 227.5555555555556 213.3333333333333 227.5555555555556zM128 188.4444444444445C145.6355555555556 188.4444444444445 160 174.08 160 156.4444444444445S145.6355555555556 124.4444444444445 128 124.4444444444445S96 138.8088888888889 96 156.4444444444445S110.3644444444444 188.4444444444445 128 188.4444444444445zM192 56.8888888888889H64V67.5555555555556C64 88.8888888888889 106.6666666666667 99.5555555555556 128 99.5555555555556S192 88.8888888888889 192 67.5555555555556V56.8888888888889z" />
    <glyph glyph-name="ic_account_box_24px"
      unicode="&#xEA14;"
      horiz-adv-x="256" d="M32 202.6666666666667V53.3333333333334C32 41.6 41.4933333333333 32 53.3333333333333 32H202.6666666666666C214.4 32 224 41.6 224 53.3333333333334V202.6666666666667C224 214.4 214.4 224 202.6666666666666 224H53.3333333333333C41.4933333333333 224 32 214.4 32 202.6666666666667zM160 160C160 142.2933333333334 145.7066666666667 128 128 128S96 142.2933333333334 96 160S110.2933333333333 192 128 192S160 177.7066666666667 160 160zM64 74.6666666666667C64 96 106.6666666666667 107.7333333333334 128 107.7333333333334S192 96 192 74.6666666666667V64H64V74.6666666666667z" />
    <glyph glyph-name="ic_account_box_48px"
      unicode="&#xEA15;"
      horiz-adv-x="256" d="M32 202.6666666666667V53.3333333333334C32 41.5466666666667 41.5466666666667 32 53.3333333333333 32H202.6666666666666C214.4533333333333 32 224 41.5466666666667 224 53.3333333333334V202.6666666666667C224 214.4533333333333 214.4533333333333 224 202.6666666666666 224H53.3333333333333C41.5466666666667 224 32 214.4533333333333 32 202.6666666666667zM160 160C160 142.2933333333334 145.6533333333333 128 128 128S96 142.2933333333334 96 160C96 177.6533333333333 110.3466666666667 192 128 192S160 177.6533333333333 160 160zM64 74.6666666666667C64 96 106.6666666666667 107.7333333333334 128 107.7333333333334S192 96 192 74.6666666666667V64H64V74.6666666666667z" />
    <glyph glyph-name="ic_account_circle_18px"
      unicode="&#xEA18;"
      horiz-adv-x="256" d="M128 241.7777777777778C65.1377777777778 241.7777777777778 14.2222222222222 190.8622222222222 14.2222222222222 128S65.1377777777778 14.2222222222222 128 14.2222222222222S241.7777777777778 65.1377777777778 241.7777777777778 128S190.8622222222222 241.7777777777778 128 241.7777777777778zM128 202.6666666666667C145.6355555555556 202.6666666666667 160 188.3022222222222 160 170.6666666666667S145.6355555555556 138.6666666666667 128 138.6666666666667S96 153.0311111111111 96 170.6666666666667S110.3644444444444 202.6666666666667 128 202.6666666666667zM128 49.7777777777778C101.5466666666667 49.7777777777778 78.3644444444445 62.8622222222222 64.1422222222222 82.9155555555556C65.7066666666667 103.5377777777778 107.0933333333333 113.7777777777778 128 113.7777777777778C148.9066666666667 113.7777777777778 190.2933333333333 103.5377777777778 191.8577777777778 82.9155555555556C177.6355555555556 62.8622222222222 154.4533333333334 49.7777777777778 128 49.7777777777778z" />
    <glyph glyph-name="ic_account_circle_24px"
      unicode="&#xEA16;"
      horiz-adv-x="256" d="M128 234.6666666666667C69.12 234.6666666666667 21.3333333333333 186.88 21.3333333333333 128S69.12 21.3333333333333 128 21.3333333333333S234.6666666666667 69.12 234.6666666666667 128S186.88 234.6666666666667 128 234.6666666666667zM128 202.6666666666667C145.7066666666667 202.6666666666667 160 188.3733333333333 160 170.6666666666667S145.7066666666667 138.6666666666667 128 138.6666666666667S96 152.96 96 170.6666666666667S110.2933333333333 202.6666666666667 128 202.6666666666667zM128 51.2C101.3333333333333 51.2 77.76 64.8533333333334 64 85.5466666666667C64.32 106.7733333333334 106.6666666666667 118.4 128 118.4C149.2266666666667 118.4 191.68 106.7733333333334 192 85.5466666666667C178.24 64.8533333333334 154.6666666666667 51.2 128 51.2z" />
    <glyph glyph-name="ic_account_circle_48px"
      unicode="&#xEA17;"
      horiz-adv-x="256" d="M128 234.6666666666667C69.0666666666667 234.6666666666667 21.3333333333333 186.9333333333333 21.3333333333333 128S69.0666666666667 21.3333333333333 128 21.3333333333333S234.6666666666667 69.0666666666667 234.6666666666667 128S186.9333333333333 234.6666666666667 128 234.6666666666667zM128 202.6666666666667C145.6533333333333 202.6666666666667 160 188.32 160 170.6666666666667C160 152.96 145.6533333333333 138.6666666666667 128 138.6666666666667S96 152.96 96 170.6666666666667C96 188.32 110.3466666666667 202.6666666666667 128 202.6666666666667zM128 51.2C101.28 51.2 77.8133333333333 64.8533333333334 64 85.5466666666667C64.2666666666667 106.72 106.72 118.4 128 118.4S191.68 106.72 192 85.5466666666667C178.1866666666667 64.8533333333334 154.72 51.2 128 51.2z" />
    <glyph glyph-name="ic_adb_18px"
      unicode="&#xEA19;"
      horiz-adv-x="256" d="M56.8888888888889 85.3333333333333C56.8888888888889 46.08 88.7466666666667 14.2222222222222 128 14.2222222222222S199.1111111111111 46.08 199.1111111111111 85.3333333333333V128H56.8888888888889V85.3333333333333zM169.9555555555556 212.0533333333334L191.2888888888889 233.3866666666667L182.8977777777778 241.7777777777778L159.4311111111111 218.3111111111111C149.9022222222222 223.1466666666667 139.3777777777778 225.9911111111111 128 225.9911111111111S106.0977777777778 223.1466666666667 96.5688888888889 218.3111111111111L73.1022222222222 241.7777777777778L64.8533333333333 233.3866666666667L86.1866666666667 212.0533333333334C68.4088888888889 199.1111111111111 56.8888888888889 178.4888888888889 56.8888888888889 154.88V142.2222222222222H199.1111111111111V154.88C199.1111111111111 178.4888888888889 187.5911111111111 199.1111111111111 169.9555555555556 212.0533333333334zM99.5555555555555 170.6666666666667H85.3333333333333V184.8888888888889H99.5555555555555V170.6666666666667zM170.6666666666667 170.6666666666667H156.4444444444444V184.8888888888889H170.6666666666667V170.6666666666667z" />
    <glyph glyph-name="ic_adb_24px"
      unicode="&#xEA1A;"
      horiz-adv-x="256" d="M53.3333333333333 85.3333333333333C53.3333333333333 44.0533333333333 86.72 10.6666666666667 128 10.6666666666667S202.6666666666666 44.0533333333333 202.6666666666666 85.3333333333333V128H53.3333333333333V85.3333333333333zM171.9466666666667 209.3866666666667L194.3466666666667 231.7866666666667L185.6 240.64L161.0666666666667 216C151.04 221.0133333333333 139.9466666666667 224 128 224S104.96 221.0133333333333 95.04 216L70.4 240.64L61.6533333333333 231.7866666666667L84.0533333333333 209.3866666666667C65.4933333333333 195.84 53.3333333333333 174.08 53.3333333333333 149.3333333333334V138.6666666666667H202.6666666666666V149.3333333333334C202.6666666666666 174.08 190.5066666666666 195.84 171.9466666666666 209.3866666666667zM96 160C90.1333333333333 160 85.3333333333333 164.8 85.3333333333333 170.6666666666667S90.1333333333333 181.3333333333334 96 181.3333333333334S106.6666666666667 176.5333333333334 106.6666666666667 170.6666666666667S101.8666666666667 160 96 160zM160 160C154.1333333333333 160 149.3333333333334 164.8 149.3333333333334 170.6666666666667S154.1333333333334 181.3333333333334 160 181.3333333333334S170.6666666666667 176.5333333333334 170.6666666666667 170.6666666666667S165.8666666666667 160 160 160z" />
    <glyph glyph-name="ic_adb_48px"
      unicode="&#xEA1B;"
      horiz-adv-x="256" d="M53.3333333333333 85.3333333333333C53.3333333333333 44.1066666666667 86.7733333333333 10.6666666666667 128 10.6666666666667S202.6666666666666 44.1066666666667 202.6666666666666 85.3333333333333V128H53.3333333333333V85.3333333333333zM172 209.3866666666667L194.4 231.7866666666667L185.6 240.5866666666667L161.0133333333333 216C150.9866666666667 220.96 139.8933333333333 224 128 224C116.1066666666667 224 105.0133333333333 220.96 94.9866666666667 216L70.4 240.5866666666667L61.6 231.7866666666667L84 209.3866666666667C65.4933333333333 195.84 53.3333333333333 174.08 53.3333333333333 149.3333333333334V138.6666666666667H202.6666666666666V149.3333333333334C202.6666666666666 174.08 190.5066666666666 195.84 172 209.3866666666667zM96 160C90.08 160 85.3333333333333 164.8 85.3333333333333 170.6666666666667S90.08 181.3333333333334 96 181.3333333333334C101.92 181.3333333333334 106.6666666666667 176.5333333333334 106.6666666666667 170.6666666666667S101.92 160 96 160zM160 160C154.08 160 149.3333333333334 164.8 149.3333333333334 170.6666666666667S154.08 181.3333333333334 160 181.3333333333334C165.92 181.3333333333334 170.6666666666667 176.5333333333334 170.6666666666667 170.6666666666667S165.92 160 160 160z" />
    <glyph glyph-name="ic_add_24px"
      unicode="&#xEA1C;"
      horiz-adv-x="256" d="M202.6666666666667 117.3333333333334H138.6666666666667V53.3333333333333H117.3333333333333V117.3333333333334H53.3333333333333V138.6666666666667H117.3333333333333V202.6666666666667H138.6666666666667V138.6666666666667H202.6666666666667V117.3333333333334z" />
    <glyph glyph-name="ic_add_48px"
      unicode="&#xEA1D;"
      horiz-adv-x="256" d="M202.6666666666667 117.3333333333334H138.6666666666667V53.3333333333333H117.3333333333333V117.3333333333334H53.3333333333333V138.6666666666667H117.3333333333333V202.6666666666667H138.6666666666667V138.6666666666667H202.6666666666667V117.3333333333334z" />
    <glyph glyph-name="ic_add_a_photo_24px"
      unicode="&#xEA1E;"
      horiz-adv-x="256" d="M32 213.3333333333334V245.3333333333334H53.3333333333333V213.3333333333334H85.3333333333333V192H53.3333333333333V160H32V192H0V213.3333333333334H32zM64 149.3333333333334V181.3333333333334H96V213.3333333333334H170.6666666666667L190.1866666666667 192H224C235.7333333333334 192 245.3333333333334 182.4 245.3333333333334 170.6666666666667V42.6666666666667C245.3333333333334 30.9333333333333 235.7333333333334 21.3333333333333 224 21.3333333333333H53.3333333333333C41.6 21.3333333333333 32 30.9333333333333 32 42.6666666666667V149.3333333333334H64zM138.6666666666667 53.3333333333333C168.1066666666667 53.3333333333333 192 77.2266666666667 192 106.6666666666667S168.1066666666667 160 138.6666666666667 160S85.3333333333334 136.1066666666667 85.3333333333334 106.6666666666667S109.2266666666667 53.3333333333334 138.6666666666667 53.3333333333334zM104.5333333333333 106.6666666666667C104.5333333333333 87.7866666666667 119.7866666666667 72.5333333333334 138.6666666666667 72.5333333333334S172.8 87.7866666666667 172.8 106.6666666666667S157.5466666666667 140.8 138.6666666666667 140.8S104.5333333333333 125.5466666666667 104.5333333333333 106.6666666666667z" />
    <glyph glyph-name="ic_add_a_photo_48px"
      unicode="&#xEA1F;"
      horiz-adv-x="256" d="M32 213.3333333333334V245.3333333333334H53.3333333333333V213.3333333333334H85.3333333333333V192H53.3333333333333V160H32V192H0V213.3333333333334H32zM64 149.3333333333334V181.3333333333334H96V213.3333333333334H170.6666666666667L190.1866666666667 192H224C235.7333333333334 192 245.3333333333334 182.4 245.3333333333334 170.6666666666667V42.6666666666667C245.3333333333334 30.9333333333333 235.7333333333334 21.3333333333333 224 21.3333333333333H53.3333333333333C41.6 21.3333333333333 32 30.9333333333333 32 42.6666666666667V149.3333333333334H64zM138.6666666666667 53.3333333333333C168.1066666666667 53.3333333333333 192 77.2266666666667 192 106.6666666666667S168.1066666666667 160 138.6666666666667 160S85.3333333333334 136.1066666666667 85.3333333333334 106.6666666666667S109.2266666666667 53.3333333333334 138.6666666666667 53.3333333333334zM104.5333333333333 106.6666666666667C104.5333333333333 87.7866666666667 119.7866666666667 72.5333333333334 138.6666666666667 72.5333333333334S172.8 87.7866666666667 172.8 106.6666666666667S157.5466666666667 140.8 138.6666666666667 140.8S104.5333333333333 125.5466666666667 104.5333333333333 106.6666666666667z" />
    <glyph glyph-name="ic_add_alarm_24px"
      unicode="&#xEA20;"
      horiz-adv-x="256" d="M84.0533333333333 219.84L70.4 236.16L21.3333333333333 195.0933333333333L35.0933333333333 178.7733333333334L84.0533333333333 219.84zM234.6666666666667 194.9866666666667L185.6 236.16L171.84 219.84L220.9066666666667 178.6666666666667L234.6666666666667 194.9866666666667zM128 213.3333333333334C74.9866666666667 213.3333333333334 32 170.3466666666667 32 117.3333333333334S74.88 21.3333333333333 128 21.3333333333333C181.0133333333333 21.3333333333333 224 64.32 224 117.3333333333334S181.0133333333333 213.3333333333334 128 213.3333333333334zM128 42.6666666666667C86.72 42.6666666666667 53.3333333333333 76.0533333333333 53.3333333333333 117.3333333333334S86.72 192 128 192S202.6666666666667 158.6133333333334 202.6666666666667 117.3333333333334S169.28 42.6666666666667 128 42.6666666666667zM138.6666666666667 160H117.3333333333333V128H85.3333333333333V106.6666666666667H117.3333333333333V74.6666666666667H138.6666666666667V106.6666666666667H170.6666666666667V128H138.6666666666667V160z" />
    <glyph glyph-name="ic_add_alarm_48px"
      unicode="&#xEA21;"
      horiz-adv-x="256" d="M84.0533333333333 219.84L70.3466666666667 236.16L21.3333333333333 195.04L35.04 178.72L84.0533333333333 219.84zM234.6666666666667 194.9866666666667L185.6533333333333 236.1066666666667L171.9466666666667 219.7866666666667L220.96 178.6666666666667L234.6666666666667 194.9866666666667zM127.9466666666667 213.3333333333334C74.88 213.3333333333334 32 170.3466666666667 32 117.3333333333334S74.88 21.3333333333333 127.9466666666667 21.3333333333333S224 64.32 224 117.3333333333334S181.0133333333333 213.3333333333334 127.9466666666667 213.3333333333334zM128 42.6666666666667C86.7733333333333 42.6666666666667 53.3333333333333 76.1066666666667 53.3333333333333 117.3333333333334S86.7733333333333 192 128 192S202.6666666666667 158.56 202.6666666666667 117.3333333333334S169.28 42.6666666666667 128 42.6666666666667zM138.6666666666667 160H117.3333333333333V128H85.3333333333333V106.6666666666667H117.3333333333333V74.6666666666667H138.6666666666667V106.6666666666667H170.6666666666667V128H138.6666666666667V160z" />
    <glyph glyph-name="ic_add_alert_24px"
      unicode="&#xEA22;"
      horiz-adv-x="256" d="M106.7733333333333 31.8933333333333C106.7733333333333 20.16 116.2666666666667 10.6666666666667 128 10.6666666666667S149.2266666666667 20.16 149.2266666666667 31.8933333333333H106.7733333333333zM201.3866666666667 76.5866666666667V138.6666666666667C201.3866666666667 173.3333333333334 177.3866666666667 202.3466666666667 144.96 210.0266666666667V217.7066666666667C144.96 227.0933333333334 137.3866666666667 234.6666666666667 128 234.6666666666667S111.04 227.0933333333334 111.04 217.7066666666667V210.0266666666667C78.6133333333333 202.3466666666667 54.6133333333333 173.3333333333334 54.6133333333333 138.6666666666667V76.5866666666667L32 53.9733333333333V42.6666666666667H224V53.9733333333334L201.3866666666667 76.5866666666667zM170.6666666666667 117.2266666666667H138.6666666666667V85.2266666666667H117.3333333333333V117.2266666666667H85.3333333333333V138.6666666666667H117.3333333333333V170.6666666666667H138.6666666666667V138.6666666666667H170.6666666666667V117.2266666666667z" />
    <glyph glyph-name="ic_add_alert_48px"
      unicode="&#xEA23;"
      horiz-adv-x="256" d="M106.7733333333333 37.2266666666667C106.7733333333333 25.4933333333333 116.2666666666667 16 128 16S149.2266666666667 25.4933333333333 149.2266666666667 37.2266666666667H106.7733333333333zM201.3866666666667 81.92V144C201.3866666666667 178.6666666666667 177.3866666666667 207.68 144.96 215.36V223.04C144.96 232.4266666666667 137.3866666666667 240 128 240S111.04 232.4266666666667 111.04 223.04V215.36C78.6133333333333 207.68 54.6133333333333 178.6666666666667 54.6133333333333 144V81.92L32 59.3066666666667V48H224V59.3066666666667L201.3866666666667 81.92zM170.6666666666667 122.6133333333334H138.6666666666667V90.6133333333334H117.3333333333333V122.6133333333334H85.3333333333333V144H117.3333333333333V176H138.6666666666667V144H170.6666666666667V122.6133333333334z" />
    <glyph glyph-name="ic_add_box_24px"
      unicode="&#xEA24;"
      horiz-adv-x="256" d="M202.6666666666667 224H53.3333333333333C41.4933333333333 224 32 214.4 32 202.6666666666667V53.3333333333334C32 41.6 41.4933333333333 32 53.3333333333333 32H202.6666666666666C214.4 32 224 41.6 224 53.3333333333334V202.6666666666667C224 214.4 214.4 224 202.6666666666666 224zM181.3333333333333 117.3333333333334H138.6666666666667V74.6666666666667H117.3333333333333V117.3333333333334H74.6666666666667V138.6666666666667H117.3333333333333V181.3333333333334H138.6666666666667V138.6666666666667H181.3333333333333V117.3333333333334z" />
    <glyph glyph-name="ic_add_box_48px"
      unicode="&#xEA25;"
      horiz-adv-x="256" d="M202.6666666666667 224H53.3333333333333C41.5466666666667 224 32 214.4533333333333 32 202.6666666666667V53.3333333333334C32 41.5466666666667 41.5466666666667 32 53.3333333333333 32H202.6666666666666C214.4533333333333 32 224 41.5466666666667 224 53.3333333333334V202.6666666666667C224 214.4533333333333 214.4533333333333 224 202.6666666666666 224zM181.3333333333333 117.3333333333334H138.6666666666667V74.6666666666667H117.3333333333333V117.3333333333334H74.6666666666667V138.6666666666667H117.3333333333333V181.3333333333334H138.6666666666667V138.6666666666667H181.3333333333333V117.3333333333334z" />
    <glyph glyph-name="ic_add_circle_24px"
      unicode="&#xEA26;"
      horiz-adv-x="256" d="M128 234.6666666666667C69.12 234.6666666666667 21.3333333333333 186.88 21.3333333333333 128S69.12 21.3333333333333 128 21.3333333333333S234.6666666666667 69.12 234.6666666666667 128S186.88 234.6666666666667 128 234.6666666666667zM181.3333333333333 117.3333333333334H138.6666666666667V74.6666666666667H117.3333333333333V117.3333333333334H74.6666666666667V138.6666666666667H117.3333333333333V181.3333333333334H138.6666666666667V138.6666666666667H181.3333333333333V117.3333333333334z" />
    <glyph glyph-name="ic_add_circle_48px"
      unicode="&#xEA27;"
      horiz-adv-x="256" d="M128 234.6666666666667C69.0666666666667 234.6666666666667 21.3333333333333 186.9333333333333 21.3333333333333 128S69.0666666666667 21.3333333333333 128 21.3333333333333S234.6666666666667 69.0666666666667 234.6666666666667 128S186.9333333333333 234.6666666666667 128 234.6666666666667zM181.3333333333333 117.3333333333334H138.6666666666667V74.6666666666667H117.3333333333333V117.3333333333334H74.6666666666667V138.6666666666667H117.3333333333333V181.3333333333334H138.6666666666667V138.6666666666667H181.3333333333333V117.3333333333334z" />
    <glyph glyph-name="ic_add_circle_outline_24px"
      unicode="&#xEA28;"
      horiz-adv-x="256" d="M138.6666666666667 181.3333333333334H117.3333333333333V138.6666666666667H74.6666666666667V117.3333333333334H117.3333333333333V74.6666666666667H138.6666666666667V117.3333333333334H181.3333333333333V138.6666666666667H138.6666666666667V181.3333333333334zM128 234.6666666666667C69.12 234.6666666666667 21.3333333333333 186.88 21.3333333333333 128S69.12 21.3333333333333 128 21.3333333333333S234.6666666666667 69.12 234.6666666666667 128S186.88 234.6666666666667 128 234.6666666666667zM128 42.6666666666667C80.96 42.6666666666667 42.6666666666667 80.96 42.6666666666667 128S80.96 213.3333333333334 128 213.3333333333334S213.3333333333333 175.04 213.3333333333333 128S175.04 42.6666666666667 128 42.6666666666667z" />
    <glyph glyph-name="ic_add_circle_outline_48px"
      unicode="&#xEA29;"
      horiz-adv-x="256" d="M138.6666666666667 181.3333333333334H117.3333333333333V138.6666666666667H74.6666666666667V117.3333333333334H117.3333333333333V74.6666666666667H138.6666666666667V117.3333333333334H181.3333333333333V138.6666666666667H138.6666666666667V181.3333333333334zM128 234.6666666666667C69.0666666666667 234.6666666666667 21.3333333333333 186.9333333333333 21.3333333333333 128S69.0666666666667 21.3333333333333 128 21.3333333333333S234.6666666666667 69.0666666666667 234.6666666666667 128S186.9333333333333 234.6666666666667 128 234.6666666666667zM128 42.6666666666667C80.96 42.6666666666667 42.6666666666667 80.96 42.6666666666667 128S80.96 213.3333333333334 128 213.3333333333334S213.3333333333333 175.04 213.3333333333333 128S175.04 42.6666666666667 128 42.6666666666667z" />
    <glyph glyph-name="ic_add_location_24px"
      unicode="&#xEA2A;"
      horiz-adv-x="256" d="M128 234.6666666666667C86.8266666666667 234.6666666666667 53.3333333333333 201.1733333333334 53.3333333333333 160C53.3333333333333 104 128 21.3333333333333 128 21.3333333333333S202.6666666666666 104 202.6666666666666 160C202.6666666666666 201.1733333333334 169.1733333333333 234.6666666666667 128 234.6666666666667zM170.6666666666667 149.3333333333334H138.6666666666667V117.3333333333334H117.3333333333333V149.3333333333334H85.3333333333333V170.6666666666667H117.3333333333333V202.6666666666667H138.6666666666667V170.6666666666667H170.6666666666667V149.3333333333334z" />
    <glyph glyph-name="ic_add_location_48px"
      unicode="&#xEA2B;"
      horiz-adv-x="256" d="M128 234.6666666666667C86.8266666666667 234.6666666666667 53.3333333333333 201.1733333333334 53.3333333333333 160C53.3333333333333 104 128 21.3333333333334 128 21.3333333333334S202.6666666666667 104 202.6666666666667 160C202.6666666666667 201.1733333333334 169.1733333333333 234.6666666666667 128 234.6666666666667zM170.6666666666667 149.3333333333334H138.6666666666667V117.3333333333334H117.3333333333333V149.3333333333334H85.3333333333333V170.6666666666667H117.3333333333333V202.6666666666667H138.6666666666667V170.6666666666667H170.6666666666667V149.3333333333334z" />
    <glyph glyph-name="ic_add_shopping_cart_24px"
      unicode="&#xEA2C;"
      horiz-adv-x="256" d="M117.3333333333333 160H138.6666666666667V192H170.6666666666667V213.3333333333334H138.6666666666667V245.3333333333334H117.3333333333333V213.3333333333334H85.3333333333333V192H117.3333333333333V160zM74.6666666666667 64C62.9333333333333 64 53.44 54.4 53.44 42.6666666666667S62.9333333333333 21.3333333333333 74.6666666666667 21.3333333333333S96 30.9333333333333 96 42.6666666666667S86.4 64 74.6666666666667 64zM181.3333333333333 64C169.6 64 160.1066666666667 54.4 160.1066666666667 42.6666666666667S169.6 21.3333333333333 181.3333333333333 21.3333333333333S202.6666666666667 30.9333333333333 202.6666666666667 42.6666666666667S193.0666666666667 64 181.3333333333333 64zM76.48 98.6666666666667L76.8 99.9466666666667L86.4 117.3333333333333H165.8666666666667C173.8666666666667 117.3333333333333 180.9066666666667 121.7066666666667 184.5333333333333 128.32L225.7066666666667 203.0933333333333L207.1466666666667 213.3333333333334H207.04L195.3066666666667 192L165.8666666666667 138.6666666666667H90.9866666666667L89.6 141.5466666666667L65.7066666666667 192L55.5733333333333 213.3333333333333L45.5466666666667 234.6666666666667H10.6666666666667V213.3333333333333H32L70.4 132.3733333333333L56 106.24C54.2933333333333 103.2533333333333 53.3333333333333 99.7333333333334 53.3333333333333 96C53.3333333333333 84.2666666666667 62.9333333333334 74.6666666666667 74.6666666666667 74.6666666666667H202.6666666666667V96H79.1466666666667C77.76 96 76.48 97.1733333333334 76.48 98.6666666666667z" />
    <glyph glyph-name="ic_add_shopping_cart_48px"
      unicode="&#xEA2D;"
      horiz-adv-x="256" d="M117.3333333333333 160H138.6666666666667V192H170.6666666666667V213.3333333333334H138.6666666666667V245.3333333333334H117.3333333333333V213.3333333333334H85.3333333333333V192H117.3333333333333V160zM74.6666666666667 64C62.88 64 53.44 54.4533333333333 53.44 42.6666666666667S62.88 21.3333333333333 74.6666666666667 21.3333333333333S96 30.88 96 42.6666666666667S86.4533333333333 64 74.6666666666667 64zM181.3333333333333 64C169.5466666666667 64 160.1066666666667 54.4533333333333 160.1066666666667 42.6666666666667S169.5466666666667 21.3333333333333 181.3333333333333 21.3333333333333S202.6666666666667 30.88 202.6666666666667 42.6666666666667S193.12 64 181.3333333333333 64zM76.5333333333333 98.6666666666667C76.5333333333333 99.1466666666667 76.64 99.5733333333333 76.8533333333333 99.9466666666667L86.4533333333333 117.3333333333333H165.92C173.92 117.3333333333333 180.9066666666667 121.76 184.5866666666667 128.32L225.76 203.0933333333333L207.0933333333333 213.3333333333334H207.04L195.2533333333333 192L165.8666666666667 138.6666666666667H91.04L89.6533333333333 141.5466666666667L65.7066666666667 192L55.5733333333333 213.3333333333333L45.4933333333333 234.6666666666667H10.6666666666667V213.3333333333333H32L70.4 132.4266666666667L55.9466666666667 106.2933333333333C54.2933333333333 103.2 53.3333333333333 99.7333333333333 53.3333333333333 96C53.3333333333333 84.2133333333333 62.88 74.6666666666667 74.6666666666667 74.6666666666667H202.6666666666667V96H79.2C77.7066666666667 96 76.5333333333333 97.1733333333334 76.5333333333333 98.6666666666667z" />
    <glyph glyph-name="ic_add_to_photos_24px"
      unicode="&#xEA2E;"
      horiz-adv-x="256" d="M42.6666666666667 192H21.3333333333333V42.6666666666667C21.3333333333333 30.9333333333333 30.9333333333333 21.3333333333333 42.6666666666667 21.3333333333333H192V42.6666666666667H42.6666666666667V192zM213.3333333333333 234.6666666666667H85.3333333333333C73.6 234.6666666666667 64 225.0666666666667 64 213.3333333333333V85.3333333333333C64 73.6 73.6 64 85.3333333333333 64H213.3333333333333C225.0666666666667 64 234.6666666666667 73.6 234.6666666666667 85.3333333333333V213.3333333333334C234.6666666666667 225.0666666666667 225.0666666666667 234.6666666666667 213.3333333333333 234.6666666666667zM202.6666666666667 138.6666666666667H160V96H138.6666666666667V138.6666666666667H96V160H138.6666666666667V202.6666666666667H160V160H202.6666666666667V138.6666666666667z" />
    <glyph glyph-name="ic_add_to_photos_48px"
      unicode="&#xEA2F;"
      horiz-adv-x="256" d="M42.6666666666667 192H21.3333333333333V42.6666666666667C21.3333333333333 30.88 30.88 21.3333333333333 42.6666666666667 21.3333333333333H192V42.6666666666667H42.6666666666667V192zM213.3333333333333 234.6666666666667H85.3333333333333C73.5466666666667 234.6666666666667 64 225.12 64 213.3333333333333V85.3333333333333C64 73.5466666666667 73.5466666666667 64 85.3333333333333 64H213.3333333333333C225.12 64 234.6666666666667 73.5466666666666 234.6666666666667 85.3333333333333V213.3333333333334C234.6666666666667 225.12 225.12 234.6666666666667 213.3333333333333 234.6666666666667zM202.6666666666667 138.6666666666667H160V96H138.6666666666667V138.6666666666667H96V160H138.6666666666667V202.6666666666667H160V160H202.6666666666667V138.6666666666667z" />
    <glyph glyph-name="ic_add_to_queue_24px"
      unicode="&#xEA30;"
      horiz-adv-x="256" d="M224 224H32C20.16 224 10.6666666666667 214.5066666666667 10.6666666666667 202.6666666666667V74.6666666666667C10.6666666666667 62.9333333333333 20.16 53.3333333333333 32 53.3333333333333H85.3333333333333V32H170.6666666666667V53.3333333333333H224C235.7333333333334 53.3333333333333 245.2266666666667 62.9333333333333 245.2266666666667 74.6666666666667L245.3333333333333 202.6666666666667C245.3333333333333 214.5066666666667 235.7333333333333 224 224 224zM224 74.6666666666667H32V202.6666666666667H224V74.6666666666667zM170.6666666666667 149.3333333333334V128H138.6666666666667V96H117.3333333333334V128H85.3333333333333V149.3333333333333H117.3333333333333V181.3333333333334H138.6666666666667V149.3333333333334H170.6666666666667z" />
    <glyph glyph-name="ic_add_to_queue_48px"
      unicode="&#xEA31;"
      horiz-adv-x="256" d="M224 224H32C20.2133333333333 224 10.6666666666667 214.4533333333333 10.6666666666667 202.6666666666667V74.6666666666667C10.6666666666667 62.88 20.2133333333333 53.3333333333333 32 53.3333333333333H85.3333333333333V32H170.6666666666667V53.3333333333333H224C235.7866666666667 53.3333333333333 245.2266666666667 62.88 245.2266666666667 74.6666666666667L245.3333333333333 202.6666666666667C245.3333333333333 214.4533333333333 235.7866666666667 224 224 224zM224 74.6666666666667H32V202.6666666666667H224V74.6666666666667zM170.6666666666667 149.3333333333334V128H138.6666666666667V96H117.3333333333333V128H85.3333333333333V149.3333333333333H117.3333333333333V181.3333333333333H138.6666666666667V149.3333333333333H170.6666666666667z" />
    <glyph glyph-name="ic_adjust_24px"
      unicode="&#xEA32;"
      horiz-adv-x="256" d="M128 234.6666666666667C69.2266666666667 234.6666666666667 21.3333333333333 186.7733333333334 21.3333333333333 128S69.2266666666667 21.3333333333333 128 21.3333333333333S234.6666666666667 69.2266666666667 234.6666666666667 128S186.7733333333334 234.6666666666667 128 234.6666666666667zM128 42.6666666666667C80.96 42.6666666666667 42.6666666666667 80.96 42.6666666666667 128S80.96 213.3333333333333 128 213.3333333333333S213.3333333333333 175.04 213.3333333333333 128S175.04 42.6666666666667 128 42.6666666666667zM160 128C160 110.2933333333334 145.7066666666667 96 128 96S96 110.2933333333333 96 128S110.2933333333333 160 128 160S160 145.7066666666667 160 128z" />
    <glyph glyph-name="ic_adjust_48px"
      unicode="&#xEA33;"
      horiz-adv-x="256" d="M128 234.6666666666667C69.1733333333333 234.6666666666667 21.3333333333333 186.8266666666667 21.3333333333333 128S69.1733333333333 21.3333333333333 128 21.3333333333333S234.6666666666667 69.1733333333334 234.6666666666667 128S186.8266666666667 234.6666666666667 128 234.6666666666667zM128 42.6666666666667C80.96 42.6666666666667 42.6666666666667 80.96 42.6666666666667 128S80.96 213.3333333333334 128 213.3333333333334S213.3333333333333 175.04 213.3333333333333 128S175.04 42.6666666666667 128 42.6666666666667zM160 128C160 110.3466666666667 145.6533333333333 96 128 96S96 110.3466666666667 96 128S110.3466666666667 160 128 160S160 145.6533333333333 160 128z" />
    <glyph glyph-name="ic_airline_seat_flat_24px"
      unicode="&#xEA34;"
      horiz-adv-x="256" d="M234.6666666666667 138.6666666666667V117.3333333333334H96V181.3333333333334H192C215.5733333333333 181.3333333333334 234.6666666666667 162.24 234.6666666666667 138.6666666666667zM21.3333333333333 106.6666666666667V85.3333333333333H85.3333333333333V64H170.6666666666667V85.3333333333333H234.6666666666667V106.6666666666667H21.3333333333333zM76.16 126.9333333333333C88.5333333333333 139.6266666666667 88.32 159.7866666666667 75.7333333333333 172.16C63.04 184.5333333333333 42.88 184.32 30.5066666666667 171.7333333333334C18.1333333333333 159.04 18.3466666666667 138.88 30.9333333333333 126.5066666666667C43.6266666666667 114.1333333333333 63.7866666666667 114.3466666666667 76.16 126.9333333333333z" />
    <glyph glyph-name="ic_airline_seat_flat_48px"
      unicode="&#xEA35;"
      horiz-adv-x="256" d="M234.6666666666667 138.6666666666667V117.3333333333334H96V181.3333333333334H192C215.5733333333333 181.3333333333334 234.6666666666667 162.24 234.6666666666667 138.6666666666667zM21.3333333333333 106.6666666666667V85.3333333333333H85.3333333333333V64H170.6666666666667V85.3333333333333H234.6666666666667V106.6666666666667H21.3333333333333zM76.2133333333333 126.9333333333333C88.5866666666667 139.5733333333333 88.3733333333333 159.84 75.7333333333333 172.16C63.0933333333333 184.5333333333333 42.8266666666667 184.32 30.5066666666667 171.68C18.1333333333333 159.04 18.3466666666667 138.7733333333333 30.9866666666667 126.4533333333333C43.5733333333333 114.08 63.84 114.2933333333333 76.2133333333333 126.9333333333333z" />
    <glyph glyph-name="ic_airline_seat_flat_angled_24px"
      unicode="&#xEA36;"
      horiz-adv-x="256" d="M237.3333333333333 103.5733333333334L229.9733333333333 83.4133333333334L98.1333333333333 131.0933333333333L120.32 191.4666666666667L211.6266666666667 158.5066666666667C234.0266666666667 150.4 245.5466666666667 125.8666666666667 237.3333333333334 103.5733333333333zM16 126.5066666666667L85.3333333333333 101.5466666666667V53.3333333333333H170.6666666666667V70.72L218.88 53.3333333333333L226.24 73.4933333333333L23.36 146.6666666666667L16 126.5066666666667zM77.8666666666667 147.2C93.76 154.88 100.48 173.9733333333333 92.9066666666667 189.8666666666667C85.2266666666667 205.76 66.1333333333333 212.48 50.1333333333333 204.8C34.24 197.2266666666667 27.52 178.1333333333333 35.2 162.1333333333333C42.7733333333333 146.24 61.8666666666667 139.52 77.8666666666667 147.2z" />
    <glyph glyph-name="ic_airline_seat_flat_angled_48px"
      unicode="&#xEA37;"
      horiz-adv-x="256" d="M237.3866666666667 103.6266666666667L230.0266666666667 83.52L98.1333333333333 131.0933333333333L120.2666666666667 191.4133333333333L211.5733333333333 158.4533333333333C233.9733333333334 150.4 245.5466666666667 125.8133333333333 237.3866666666667 103.6266666666667zM16 126.56L85.3333333333333 101.5466666666667V53.3333333333333H170.6666666666667V70.72L218.9333333333333 53.3333333333333L226.2933333333333 73.44L23.36 146.6666666666667L16 126.56zM77.8133333333333 147.1466666666667C93.76 154.7733333333334 100.48 173.8666666666667 92.8533333333333 189.8133333333333C85.2266666666667 205.76 66.1333333333333 212.48 50.1866666666667 204.8533333333333C34.24 197.2266666666667 27.52 178.1333333333333 35.1466666666667 162.1866666666667C42.7733333333333 146.24 61.8666666666667 139.52 77.8133333333333 147.1466666666667z" />
    <glyph glyph-name="ic_airline_seat_individual_suite_24px"
      unicode="&#xEA38;"
      horiz-adv-x="256" d="M74.6666666666667 117.3333333333334C92.2666666666667 117.3333333333334 106.6666666666667 131.7333333333334 106.6666666666667 149.3333333333334S92.2666666666667 181.3333333333334 74.6666666666667 181.3333333333334S42.6666666666667 166.9333333333333 42.6666666666667 149.3333333333334S57.0666666666667 117.3333333333334 74.6666666666667 117.3333333333334zM202.6666666666667 181.3333333333334H117.3333333333333V106.6666666666667H32V181.3333333333334H10.6666666666667V74.6666666666667H245.3333333333333V138.6666666666667C245.3333333333333 162.24 226.24 181.3333333333334 202.6666666666667 181.3333333333334z" />
    <glyph glyph-name="ic_airline_seat_individual_suite_48px"
      unicode="&#xEA39;"
      horiz-adv-x="256" d="M74.6666666666667 117.3333333333334C92.32 117.3333333333334 106.6666666666667 131.68 106.6666666666667 149.3333333333334S92.32 181.3333333333334 74.6666666666667 181.3333333333334S42.6666666666667 166.9866666666667 42.6666666666667 149.3333333333334S57.0133333333333 117.3333333333334 74.6666666666667 117.3333333333334zM202.6666666666667 181.3333333333334H117.3333333333333V106.6666666666667H32V181.3333333333334H10.6666666666667V74.6666666666667H245.3333333333333V138.6666666666667C245.3333333333333 162.24 226.24 181.3333333333334 202.6666666666667 181.3333333333334z" />
    <glyph glyph-name="ic_airline_seat_legroom_extra_24px"
      unicode="&#xEA3A;"
      horiz-adv-x="256" d="M42.6666666666667 128V224H21.3333333333333V128C21.3333333333333 98.56 45.2266666666667 74.6666666666667 74.6666666666667 74.6666666666667H138.6666666666667V96H74.6666666666667C56.96 96 42.6666666666667 110.2933333333334 42.6666666666667 128zM243.52 72.1066666666667C239.4666666666666 79.7866666666667 229.76 82.4533333333334 221.8666666666666 78.8266666666667L210.24 73.4933333333333L173.8666666666666 147.9466666666667C170.24 155.2 162.88 159.8933333333334 154.7733333333333 159.8933333333334L117.3333333333333 160V224H53.3333333333333V138.6666666666667C53.3333333333333 120.96 67.6266666666667 106.6666666666667 85.3333333333333 106.6666666666667H160L196.3733333333333 32L236.0533333333334 50.1333333333334C244.2666666666667 53.9733333333334 247.7866666666667 64 243.52 72.1066666666667z" />
    <glyph glyph-name="ic_airline_seat_legroom_extra_48px"
      unicode="&#xEA3B;"
      horiz-adv-x="256" d="M42.6666666666667 128V224H21.3333333333333V128C21.3333333333333 98.56 45.2266666666667 74.6666666666667 74.6666666666667 74.6666666666667H138.6666666666667V96H74.6666666666667C57.0133333333333 96 42.6666666666667 110.3466666666667 42.6666666666667 128zM243.52 72.16C239.52 79.84 229.76 82.5066666666667 221.8666666666666 78.88L210.1866666666666 73.5466666666667L173.7599999999999 147.9466666666667C170.1866666666666 155.2533333333333 162.7733333333333 159.8933333333333 154.6666666666666 159.8933333333333L117.3333333333333 160V224H53.3333333333333V138.6666666666667C53.3333333333333 121.0133333333334 67.68 106.6666666666667 85.3333333333333 106.6666666666667H160L196.3733333333333 32L236 50.1866666666667C244.2666666666667 53.9733333333334 247.7866666666667 63.9466666666667 243.52 72.16z" />
    <glyph glyph-name="ic_airline_seat_legroom_normal_24px"
      unicode="&#xEA3C;"
      horiz-adv-x="256" d="M53.3333333333333 128V224H32V128C32 98.56 55.8933333333333 74.6666666666667 85.3333333333333 74.6666666666667H149.3333333333333V96H85.3333333333333C67.6266666666667 96 53.3333333333333 110.2933333333334 53.3333333333333 128zM218.6666666666666 64H202.6666666666667V138.6666666666667C202.6666666666667 150.4 193.0666666666667 160 181.3333333333333 160H128V224H64V138.6666666666667C64 121.0666666666667 78.4 106.6666666666667 96 106.6666666666667H170.6666666666667V32H218.6666666666667C227.52 32 234.6666666666667 39.1466666666667 234.6666666666667 48S227.52 64 218.6666666666667 64z" />
    <glyph glyph-name="ic_airline_seat_legroom_normal_48px"
      unicode="&#xEA3D;"
      horiz-adv-x="256" d="M53.3333333333333 128V224H32V128C32 98.56 55.8933333333333 74.6666666666667 85.3333333333333 74.6666666666667H149.3333333333333V96H85.3333333333333C67.68 96 53.3333333333333 110.3466666666667 53.3333333333333 128zM218.6666666666666 64H202.6666666666666V138.6666666666667C202.6666666666666 150.4533333333333 193.12 160 181.3333333333333 160H128V224H64V138.6666666666667C64 121.0666666666667 78.4 106.6666666666667 96 106.6666666666667H170.6666666666667V32H218.6666666666667C227.52 32 234.6666666666667 39.1466666666667 234.6666666666667 48S227.52 64 218.6666666666667 64z" />
    <glyph glyph-name="ic_airline_seat_legroom_reduced_24px"
      unicode="&#xEA3E;"
      horiz-adv-x="256" d="M213.0133333333333 51.2C214.9333333333333 40.96 207.1466666666667 32 197.3333333333333 32H149.3333333333333V64L160 106.6666666666667H96C78.4 106.6666666666667 64 121.0666666666667 64 138.6666666666667V224H128V160H181.3333333333333C193.0666666666667 160 202.6666666666667 150.4 202.6666666666667 138.6666666666667L181.3333333333333 64H196.6933333333333C204.48 64 211.52 58.7733333333333 213.0133333333333 51.2zM53.3333333333333 128V224H32V128C32 98.56 55.8933333333333 74.6666666666667 85.3333333333333 74.6666666666667H128V96H85.3333333333333C67.6266666666667 96 53.3333333333333 110.2933333333334 53.3333333333333 128z" />
    <glyph glyph-name="ic_airline_seat_legroom_reduced_48px"
      unicode="&#xEA3F;"
      horiz-adv-x="256" d="M213.0133333333333 51.1466666666667C214.9866666666667 40.96 207.2 32 197.3333333333333 32H149.3333333333333V64L160 106.6666666666667H96C78.4 106.6666666666667 64 121.0666666666667 64 138.6666666666667V224H128V160H181.3333333333333C193.12 160 202.6666666666667 150.4533333333333 202.6666666666667 138.6666666666667L181.3333333333333 64H196.7466666666667C204.48 64 211.5733333333333 58.7733333333333 213.0133333333333 51.1466666666667zM53.3333333333333 128V224H32V128C32 98.56 55.8933333333333 74.6666666666667 85.3333333333333 74.6666666666667H128V96H85.3333333333333C67.68 96 53.3333333333333 110.3466666666667 53.3333333333333 128z" />
    <glyph glyph-name="ic_airline_seat_recline_extra_24px"
      unicode="&#xEA40;"
      horiz-adv-x="256" d="M57.0666666666667 195.84C47.4666666666667 202.6666666666667 45.12 215.8933333333333 51.84 225.6C58.56 235.2 71.8933333333333 237.5466666666667 81.6 230.8266666666667C91.2 224 93.5466666666667 210.7733333333334 86.8266666666667 201.0666666666667C80 191.4666666666667 66.7733333333333 189.12 57.0666666666667 195.84zM170.6666666666667 53.3333333333333H95.2533333333333C79.4666666666667 53.3333333333333 66.0266666666667 64.8533333333334 63.68 80.4266666666667L42.6666666666667 181.3333333333334H21.3333333333333L42.56 77.2266666666667C46.6133333333333 51.2 69.0133333333333 32 95.36 32H170.6666666666667V53.3333333333333zM173.12 96H121.0666666666667L110.08 139.7333333333333C126.9333333333333 130.24 145.0666666666667 123.3066666666667 165.0133333333334 126.72V149.44C147.6266666666667 146.1333333333333 128.32 152.32 114.9866666666667 162.7733333333333L97.4933333333333 176.32C95.04 178.24 92.2666666666667 179.52 89.3866666666667 180.3733333333333C85.9733333333333 181.3333333333333 82.3466666666667 181.6533333333333 78.8266666666667 181.0133333333333H78.6133333333333C65.4933333333333 178.6666666666667 56.7466666666667 166.1866666666667 58.9866666666667 153.1733333333334L73.3866666666667 90.0266666666667C76.3733333333333 74.88 89.4933333333333 64 104.8533333333333 64H177.92L218.6666666666667 32L234.6666666666667 48L173.12 96z" />
    <glyph glyph-name="ic_airline_seat_recline_extra_48px"
      unicode="&#xEA41;"
      horiz-adv-x="256" d="M57.12 195.84C47.4666666666667 202.6133333333334 45.12 215.8933333333333 51.84 225.5466666666667C58.6133333333333 235.2 71.8933333333333 237.5466666666667 81.5466666666667 230.7733333333334C91.2 224 93.5466666666667 210.72 86.7733333333333 201.0666666666667C80.0533333333333 191.4666666666667 66.7733333333333 189.12 57.12 195.84zM170.6666666666667 53.3333333333333H95.2533333333333C79.4666666666667 53.3333333333333 66.0266666666667 64.8533333333334 63.6266666666667 80.4266666666667L42.6666666666667 181.3333333333334H21.3333333333333L42.6133333333333 77.28C46.56 51.2533333333333 68.96 32 95.3066666666667 32H170.6666666666667V53.3333333333333zM173.12 96H121.0666666666667L110.1333333333333 139.7333333333333C126.9333333333333 130.24 145.12 123.2533333333333 165.0666666666667 126.72V149.3866666666667C147.68 146.1333333333333 128.3733333333333 152.32 115.04 162.6666666666667L97.4933333333333 176.32C95.0933333333333 178.1866666666667 92.2666666666667 179.52 89.3333333333333 180.3733333333333C85.9733333333333 181.3333333333333 82.3466666666667 181.6 78.7733333333333 181.0133333333333L78.5066666666667 180.96C65.44 178.6666666666667 56.6933333333333 166.24 58.9866666666667 153.1733333333334L73.44 90.0266666666667C76.32 74.9333333333333 89.4933333333333 64 104.8533333333333 64H177.92L218.6666666666667 32L234.6666666666667 48L173.12 96z" />
    <glyph glyph-name="ic_airline_seat_recline_normal_24px"
      unicode="&#xEA42;"
      horiz-adv-x="256" d="M80.96 198.2933333333334C72.64 206.6133333333334 72.64 220.16 80.96 228.48C89.28 236.8 102.8266666666667 236.8 111.1466666666667 228.48C119.4666666666667 220.16 119.4666666666667 206.6133333333334 111.1466666666667 198.2933333333334C102.72 189.8666666666667 89.28 189.8666666666667 80.96 198.2933333333334zM64 85.3333333333333V181.3333333333334H42.6666666666667V85.3333333333333C42.6666666666667 55.8933333333333 66.56 32 96 32H160V53.3333333333333H96C78.2933333333333 53.3333333333333 64 67.6266666666667 64 85.3333333333333zM213.3333333333333 41.92L159.2533333333333 96H122.6666666666667V135.2533333333333C137.6 122.9866666666667 161.0666666666667 112.2133333333333 181.3333333333333 112.2133333333333V135.2533333333333C163.6266666666667 135.04 142.8266666666667 144.5333333333333 131.52 157.0133333333333L116.5866666666667 173.5466666666667C114.56 175.7866666666666 112 177.6 109.2266666666667 178.88C106.1333333333333 180.3733333333333 102.6133333333333 181.3333333333333 98.9866666666667 181.3333333333333H98.6666666666667C85.44 181.3333333333334 74.6666666666667 170.56 74.6666666666667 157.3333333333334V96C74.6666666666667 78.2933333333334 88.96 64 106.6666666666667 64H160.7466666666667L198.08 26.6666666666667L213.3333333333333 41.92z" />
    <glyph glyph-name="ic_airline_seat_recline_normal_48px"
      unicode="&#xEA43;"
      horiz-adv-x="256" d="M80.9066666666667 198.24C72.5866666666667 206.56 72.5866666666667 220.0533333333334 80.9066666666667 228.4266666666667C89.2266666666667 236.7466666666667 102.72 236.7466666666667 111.0933333333333 228.4266666666667C119.4133333333333 220.1066666666667 119.4133333333333 206.6133333333334 111.0933333333333 198.24C102.7733333333333 189.92 89.2266666666667 189.92 80.9066666666667 198.24zM64 85.3333333333333V181.3333333333334H42.6666666666667V85.3333333333333C42.6666666666667 55.8933333333333 66.56 32 96 32H160V53.3333333333333H96C78.3466666666667 53.3333333333333 64 67.68 64 85.3333333333333zM213.3333333333333 41.9733333333334L159.3066666666667 96H122.6666666666667V135.2533333333333C137.5466666666667 122.9866666666667 161.12 112.2666666666667 181.3333333333333 112.2133333333333V135.2533333333333C163.6266666666667 135.04 142.8266666666667 144.5333333333333 131.52 157.0133333333333L116.5866666666667 173.5466666666667C114.5066666666667 175.84 112 177.6 109.28 178.9333333333333C106.1333333333333 180.48 102.6133333333333 181.3866666666667 98.9866666666666 181.3866666666667H98.72C85.44 181.3333333333334 74.6666666666667 170.6133333333334 74.6666666666667 157.3333333333334V96C74.6666666666667 78.3466666666667 89.0133333333333 64 106.6666666666667 64H160.6933333333333L198.0266666666667 26.6666666666667L213.3333333333333 41.9733333333333z" />
    <glyph glyph-name="ic_airplanemode_active_24px"
      unicode="&#xEA44;"
      horiz-adv-x="256" d="M108.5866666666667 160M224 85.3333333333333V106.6666666666667L138.6666666666667 160V218.6666666666667C138.6666666666667 227.52 131.52 234.6666666666667 122.6666666666667 234.6666666666667S106.6666666666667 227.52 106.6666666666667 218.6666666666667V160L21.3333333333333 106.6666666666667V85.3333333333333L106.6666666666667 112V53.3333333333333L85.3333333333333 37.3333333333333V21.3333333333333L122.6666666666667 32L160 21.3333333333333V37.3333333333333L138.6666666666667 53.3333333333333V112L224 85.3333333333333z" />
    <glyph glyph-name="ic_airplanemode_active_48px"
      unicode="&#xEA45;"
      horiz-adv-x="256" d="M108.5866666666667 160M224 85.3333333333333V106.6666666666667L138.6666666666667 160V218.6666666666667C138.6666666666667 227.52 131.52 234.6666666666667 122.6666666666667 234.6666666666667S106.6666666666667 227.52 106.6666666666667 218.6666666666667V160L21.3333333333333 106.6666666666667V85.3333333333333L106.6666666666667 112V53.3333333333333L85.3333333333333 37.3333333333333V21.3333333333333L122.6666666666667 32L160 21.3333333333333V37.3333333333333L138.6666666666667 53.3333333333333V112L224 85.3333333333333z" />
    <glyph glyph-name="ic_airplanemode_inactive_24px"
      unicode="&#xEA46;"
      horiz-adv-x="256" d="M138.6666666666667 160V218.6666666666667C138.6666666666667 227.52 131.52 234.6666666666667 122.6666666666667 234.6666666666667S106.6666666666667 227.52 106.6666666666667 218.6666666666667V179.4133333333334L190.1866666666667 95.8933333333334L224 85.3333333333333V106.6666666666667L138.6666666666667 160zM32 199.7866666666667L85.2266666666667 146.56L21.3333333333333 106.6666666666667V85.3333333333333L106.6666666666667 112V53.3333333333333L85.3333333333333 37.3333333333333V21.3333333333333L122.6666666666667 32L160 21.3333333333333V37.3333333333333L138.6666666666667 53.3333333333333V93.12L199.7866666666667 32L213.3333333333333 45.5466666666667L45.5466666666667 213.3333333333334L32 199.7866666666667z" />
    <glyph glyph-name="ic_airplanemode_inactive_48px"
      unicode="&#xEA47;"
      horiz-adv-x="256" d="M138.6666666666667 160V218.6666666666667C138.6666666666667 227.52 131.52 234.6666666666667 122.6666666666667 234.6666666666667S106.6666666666667 227.52 106.6666666666667 218.6666666666667V179.4133333333334L190.1333333333333 95.9466666666667L224 85.3333333333333V106.6666666666667L138.6666666666667 160zM32 199.7333333333334L85.1733333333333 146.56L21.3333333333333 106.6666666666667V85.3333333333333L106.6666666666667 112V53.3333333333333L85.3333333333333 37.3333333333333V21.3333333333333L122.6666666666667 32L160 21.3333333333333V37.3333333333333L138.6666666666667 53.3333333333333V93.0666666666667L199.7333333333334 32L213.3333333333333 45.6L45.6 213.3333333333334L32 199.7333333333334z" />
    <glyph glyph-name="ic_airplay_24px"
      unicode="&#xEA48;"
      horiz-adv-x="256" d="M64 21.3333333333333H192L128 85.3333333333333zM224 224H32C20.2666666666667 224 10.6666666666667 214.4 10.6666666666667 202.6666666666667V74.6666666666667C10.6666666666667 62.9333333333333 20.2666666666667 53.3333333333333 32 53.3333333333333H74.6666666666667V74.6666666666667H32V202.6666666666667H224V74.6666666666667H181.3333333333334V53.3333333333333H224C235.7333333333334 53.3333333333333 245.3333333333334 62.9333333333333 245.3333333333334 74.6666666666667V202.6666666666667C245.3333333333334 214.4 235.7333333333334 224 224 224z" />
    <glyph glyph-name="ic_airplay_48px"
      unicode="&#xEA49;"
      horiz-adv-x="256" d="M224 224H32C20.2666666666667 224 10.6666666666667 214.4 10.6666666666667 202.6666666666667V74.6666666666667C10.6666666666667 62.9333333333333 20.2666666666667 53.3333333333333 32 53.3333333333333H74.6666666666667V74.6666666666667H32V202.6666666666667H224V74.6666666666667H181.3333333333334V53.3333333333333H224C235.7333333333334 53.3333333333333 245.3333333333334 62.9333333333333 245.3333333333334 74.6666666666667V202.6666666666667C245.3333333333334 214.4 235.7333333333334 224 224 224zM64 21.3333333333333H192L128 85.3333333333333z" />
    <glyph glyph-name="ic_airport_shuttle_24px"
      unicode="&#xEA4A;"
      horiz-adv-x="256" d="M181.3333333333333 202.6666666666667H32C20.2666666666667 202.6666666666667 10.6666666666667 193.1733333333334 10.6666666666667 181.3333333333334V85.3333333333333H32C32 67.7333333333334 46.2933333333333 53.3333333333333 64 53.3333333333333S96 67.7333333333334 96 85.3333333333333H154.6666666666667C154.6666666666667 67.7333333333334 168.96 53.3333333333333 186.6666666666667 53.3333333333333S218.6666666666667 67.7333333333334 218.6666666666667 85.3333333333333H245.3333333333333V138.6666666666667L181.3333333333333 202.6666666666667zM32 138.6666666666667V181.3333333333334H74.6666666666667V138.6666666666667H32zM64 69.3333333333333C55.1466666666667 69.3333333333333 48 76.48 48 85.3333333333333S55.1466666666667 101.3333333333333 64 101.3333333333333S80 94.1866666666667 80 85.3333333333333S72.8533333333333 69.3333333333333 64 69.3333333333333zM138.6666666666667 138.6666666666667H96V181.3333333333334H138.6666666666667V138.6666666666667zM186.6666666666667 69.3333333333333C177.8133333333333 69.3333333333333 170.6666666666667 76.48 170.6666666666667 85.3333333333333S177.8133333333333 101.3333333333333 186.6666666666667 101.3333333333333S202.6666666666667 94.1866666666667 202.6666666666667 85.3333333333333S195.52 69.3333333333333 186.6666666666667 69.3333333333333zM160 138.6666666666667V181.3333333333334H170.6666666666667L213.3333333333333 138.6666666666667H160z" />
    <glyph glyph-name="ic_airport_shuttle_48px"
      unicode="&#xEA4B;"
      horiz-adv-x="256" d="M181.3333333333333 202.6666666666667H32C20.2133333333333 202.6666666666667 10.6666666666667 193.12 10.6666666666667 181.3333333333334V85.3333333333333H32C32 67.68 46.3466666666667 53.3333333333333 64 53.3333333333333S96 67.68 96 85.3333333333333H154.6666666666667C154.6666666666667 67.68 169.0133333333333 53.3333333333333 186.6666666666667 53.3333333333333S218.6666666666667 67.68 218.6666666666667 85.3333333333333H245.3333333333333V138.6666666666667L181.3333333333333 202.6666666666667zM32 138.6666666666667V181.3333333333334H74.6666666666667V138.6666666666667H32zM64 69.3333333333333C55.1466666666667 69.3333333333333 48 76.48 48 85.3333333333333S55.1466666666667 101.3333333333333 64 101.3333333333333S80 94.1866666666667 80 85.3333333333333S72.8533333333333 69.3333333333333 64 69.3333333333333zM138.6666666666667 138.6666666666667H96V181.3333333333334H138.6666666666667V138.6666666666667zM186.6666666666667 69.3333333333333C177.8133333333333 69.3333333333333 170.6666666666667 76.48 170.6666666666667 85.3333333333333S177.8133333333333 101.3333333333333 186.6666666666667 101.3333333333333S202.6666666666667 94.1866666666667 202.6666666666667 85.3333333333333S195.52 69.3333333333333 186.6666666666667 69.3333333333333zM160 138.6666666666667V181.3333333333334H170.6666666666667L213.3333333333333 138.6666666666667H160z" />
    <glyph glyph-name="ic_alarm_24px"
      unicode="&#xEA4C;"
      horiz-adv-x="256" d="M234.6666666666667 194.9866666666667L185.6 236.16L171.84 219.84L220.9066666666667 178.6666666666667L234.6666666666667 194.9866666666667zM84.0533333333333 219.84L70.4 236.16L21.3333333333333 195.0933333333333L35.0933333333333 178.7733333333334L84.0533333333333 219.84zM133.3333333333333 170.6666666666667H117.3333333333333V106.6666666666667L168 76.2666666666667L176 89.3866666666667L133.3333333333334 114.6666666666667V170.6666666666667zM128 213.3333333333334C74.9866666666667 213.3333333333334 32 170.3466666666667 32 117.3333333333334S74.88 21.3333333333333 128 21.3333333333333C181.0133333333333 21.3333333333333 224 64.32 224 117.3333333333334S181.0133333333333 213.3333333333334 128 213.3333333333334zM128 42.6666666666667C86.72 42.6666666666667 53.3333333333333 76.0533333333333 53.3333333333333 117.3333333333334S86.72 192 128 192S202.6666666666667 158.6133333333334 202.6666666666667 117.3333333333334S169.28 42.6666666666667 128 42.6666666666667z" />
    <glyph glyph-name="ic_alarm_48px"
      unicode="&#xEA4D;"
      horiz-adv-x="256" d="M234.6666666666667 194.9866666666667L185.6533333333333 236.1066666666667L171.9466666666667 219.7866666666667L220.96 178.6666666666667L234.6666666666667 194.9866666666667zM84.0533333333333 219.84L70.3466666666667 236.16L21.3333333333333 195.04L35.04 178.72L84.0533333333333 219.84zM133.3333333333333 170.6666666666667H117.3333333333333V106.6666666666667L167.9466666666667 76.2133333333334L176 89.3866666666667L133.3333333333334 114.6666666666667V170.6666666666667zM127.9466666666667 213.3333333333334C74.88 213.3333333333334 32 170.3466666666667 32 117.3333333333334S74.88 21.3333333333333 127.9466666666667 21.3333333333333S224 64.32 224 117.3333333333334S181.0133333333333 213.3333333333334 127.9466666666667 213.3333333333334zM128 42.6666666666667C86.7733333333333 42.6666666666667 53.3333333333333 76.1066666666667 53.3333333333333 117.3333333333334S86.7733333333333 192 128 192S202.6666666666667 158.56 202.6666666666667 117.3333333333334S169.28 42.6666666666667 128 42.6666666666667z" />
    <glyph glyph-name="ic_alarm_add_24px"
      unicode="&#xEA4E;"
      horiz-adv-x="256" d="M84.0533333333333 219.84L70.4 236.16L21.3333333333333 195.0933333333333L35.0933333333333 178.7733333333334L84.0533333333333 219.84zM234.6666666666667 194.9866666666667L185.6 236.16L171.84 219.84L220.9066666666667 178.6666666666667L234.6666666666667 194.9866666666667zM128 213.3333333333334C74.9866666666667 213.3333333333334 32 170.3466666666667 32 117.3333333333334S74.88 21.3333333333333 128 21.3333333333333C181.0133333333333 21.3333333333333 224 64.32 224 117.3333333333334S181.0133333333333 213.3333333333334 128 213.3333333333334zM128 42.6666666666667C86.72 42.6666666666667 53.3333333333333 76.0533333333333 53.3333333333333 117.3333333333334S86.72 192 128 192S202.6666666666667 158.6133333333334 202.6666666666667 117.3333333333334S169.28 42.6666666666667 128 42.6666666666667zM138.6666666666667 160H117.3333333333333V128H85.3333333333333V106.6666666666667H117.3333333333333V74.6666666666667H138.6666666666667V106.6666666666667H170.6666666666667V128H138.6666666666667V160z" />
    <glyph glyph-name="ic_alarm_add_48px"
      unicode="&#xEA4F;"
      horiz-adv-x="256" d="M84.0533333333333 219.84L70.3466666666667 236.16L21.3333333333333 195.04L35.04 178.72L84.0533333333333 219.84zM234.6666666666667 194.9866666666667L185.6533333333333 236.1066666666667L171.9466666666667 219.7866666666667L220.96 178.6666666666667L234.6666666666667 194.9866666666667zM127.9466666666667 213.3333333333334C74.88 213.3333333333334 32 170.3466666666667 32 117.3333333333334S74.88 21.3333333333333 127.9466666666667 21.3333333333333S224 64.32 224 117.3333333333334S181.0133333333333 213.3333333333334 127.9466666666667 213.3333333333334zM128 42.6666666666667C86.7733333333333 42.6666666666667 53.3333333333333 76.1066666666667 53.3333333333333 117.3333333333334S86.7733333333333 192 128 192S202.6666666666667 158.56 202.6666666666667 117.3333333333334S169.28 42.6666666666667 128 42.6666666666667zM138.6666666666667 160H117.3333333333333V128H85.3333333333333V106.6666666666667H117.3333333333333V74.6666666666667H138.6666666666667V106.6666666666667H170.6666666666667V128H138.6666666666667V160z" />
    <glyph glyph-name="ic_alarm_off_24px"
      unicode="&#xEA50;"
      horiz-adv-x="256" d="M128 192C169.28 192 202.6666666666667 158.6133333333334 202.6666666666667 117.3333333333334C202.6666666666667 108.3733333333333 200.96 99.7333333333334 198.08 91.7333333333334L214.2933333333333 75.52C220.48 88.2133333333333 224 102.2933333333334 224 117.3333333333334C224 170.3466666666667 181.0133333333333 213.3333333333334 128 213.3333333333334C112.96 213.3333333333334 98.88 209.8133333333333 86.1866666666667 203.6266666666667L102.4 187.4133333333334C110.4 190.2933333333334 119.04 192 128 192zM234.6666666666667 194.9866666666667L185.6 236.16L171.84 219.84L220.9066666666667 178.6666666666667L234.6666666666667 194.9866666666667zM31.1466666666667 231.5733333333333L17.6 217.92L31.7866666666667 203.7333333333334L19.9466666666667 193.8133333333333L35.0933333333333 178.6666666666667L46.9333333333333 188.6933333333333L55.4666666666667 180.16C40.8533333333333 163.3066666666667 32 141.3333333333334 32 117.3333333333334C32 64.32 74.88 21.3333333333333 128 21.3333333333333C152 21.3333333333333 173.9733333333333 30.1866666666667 190.8266666666667 44.8L214.2933333333333 21.3333333333333L227.84 34.88L41.4933333333333 221.12L31.1466666666667 231.5733333333333zM175.68 59.84C162.7733333333333 49.1733333333333 146.1333333333333 42.6666666666667 128 42.6666666666667C86.72 42.6666666666667 53.3333333333333 76.0533333333333 53.3333333333333 117.3333333333334C53.3333333333333 135.4666666666667 59.84 152.1066666666667 70.5066666666667 165.0133333333333L175.68 59.84zM85.5466666666667 221.0133333333333L70.4 236.16L61.2266666666667 228.5866666666667L76.3733333333333 213.44L85.5466666666667 221.0133333333333z" />
    <glyph glyph-name="ic_alarm_off_48px"
      unicode="&#xEA51;"
      horiz-adv-x="256" d="M128 192C169.2266666666667 192 202.6666666666667 158.56 202.6666666666667 117.3333333333334C202.6666666666667 108.32 201.0133333333333 99.7333333333334 198.08 91.7333333333334L214.2933333333333 75.52C220.48 88.16 224 102.3466666666667 224 117.3333333333334C224 170.3466666666667 181.0133333333333 213.3333333333334 127.9466666666667 213.3333333333334C112.96 213.3333333333334 98.8266666666667 209.8133333333333 86.1333333333333 203.68L102.4 187.4133333333334C110.4 190.3466666666667 118.9866666666667 192 128 192zM234.6666666666667 194.9866666666667L185.6533333333333 236.1066666666667L171.9466666666667 219.7866666666667L220.96 178.6666666666667L234.6666666666667 194.9866666666667zM31.1466666666667 231.52L17.5466666666667 217.9733333333333L31.7333333333333 203.7866666666667L19.8933333333333 193.8666666666667L35.04 178.72L46.88 188.64L55.4133333333333 180.1066666666667C40.8533333333333 163.2533333333333 32 141.3333333333334 32 117.3333333333334C32 64.32 74.88 21.3333333333333 127.9466666666667 21.3333333333333C152 21.3333333333333 173.92 30.24 190.72 44.8L214.1866666666667 21.3333333333333L227.7333333333333 34.9333333333333L41.5466666666667 221.12L31.1466666666667 231.52zM175.68 59.84C162.72 49.12 146.1333333333333 42.6666666666667 128 42.6666666666667C86.7733333333333 42.6666666666667 53.3333333333333 76.1066666666667 53.3333333333333 117.3333333333334C53.3333333333333 135.4666666666667 59.7866666666667 152.0533333333334 70.5066666666667 165.0133333333333L175.68 59.84zM85.4933333333333 221.0666666666667L70.3466666666667 236.2133333333334L61.28 228.5866666666667L76.4266666666667 213.44L85.4933333333333 221.0666666666667z" />
    <glyph glyph-name="ic_alarm_on_24px"
      unicode="&#xEA52;"
      horiz-adv-x="256" d="M234.6666666666667 194.9866666666667L185.6 236.16L171.84 219.84L220.9066666666667 178.6666666666667L234.6666666666667 194.9866666666667zM84.0533333333333 219.84L70.4 236.16L21.3333333333333 195.0933333333333L35.0933333333333 178.7733333333334L84.0533333333333 219.84zM128 213.3333333333334C74.9866666666667 213.3333333333334 32 170.3466666666667 32 117.3333333333334S74.88 21.3333333333333 128 21.3333333333333C181.0133333333333 21.3333333333333 224 64.32 224 117.3333333333334S181.0133333333333 213.3333333333334 128 213.3333333333334zM128 42.6666666666667C86.72 42.6666666666667 53.3333333333333 76.0533333333333 53.3333333333333 117.3333333333334S86.72 192 128 192S202.6666666666667 158.6133333333334 202.6666666666667 117.3333333333334S169.28 42.6666666666667 128 42.6666666666667zM112.4266666666667 101.0133333333334L89.7066666666667 123.7333333333334L78.4 112.4266666666667L112.32 78.5066666666667L176.32 142.5066666666667L165.0133333333333 153.8133333333333L112.4266666666667 101.0133333333333z" />
    <glyph glyph-name="ic_alarm_on_48px"
      unicode="&#xEA53;"
      horiz-adv-x="256" d="M234.6666666666667 194.9866666666667L185.6533333333333 236.1066666666667L171.9466666666667 219.7866666666667L220.96 178.6666666666667L234.6666666666667 194.9866666666667zM84.0533333333333 219.84L70.3466666666667 236.16L21.3333333333333 195.04L35.04 178.72L84.0533333333333 219.84zM127.9466666666667 213.3333333333334C74.88 213.3333333333334 32 170.3466666666667 32 117.3333333333334S74.88 21.3333333333333 127.9466666666667 21.3333333333333S224 64.32 224 117.3333333333334S181.0133333333333 213.3333333333334 127.9466666666667 213.3333333333334zM128 42.6666666666667C86.7733333333333 42.6666666666667 53.3333333333333 76.1066666666667 53.3333333333333 117.3333333333334S86.7733333333333 192 128 192S202.6666666666667 158.56 202.6666666666667 117.3333333333334S169.28 42.6666666666667 128 42.6666666666667zM112.3733333333333 101.0666666666667L89.76 123.68L78.4533333333333 112.3733333333333L112.3733333333333 78.4533333333333L176.4266666666667 142.5066666666667L165.12 153.8133333333333L112.3733333333333 101.0666666666667z" />
    <glyph glyph-name="ic_album_24px"
      unicode="&#xEA54;"
      horiz-adv-x="256" d="M128 234.6666666666667C69.12 234.6666666666667 21.3333333333333 186.88 21.3333333333333 128S69.12 21.3333333333333 128 21.3333333333333S234.6666666666667 69.12 234.6666666666667 128S186.88 234.6666666666667 128 234.6666666666667zM128 80C101.44 80 80 101.44 80 128S101.44 176 128 176S176 154.56 176 128S154.56 80 128 80zM128 138.6666666666667C122.1333333333333 138.6666666666667 117.3333333333333 133.8666666666667 117.3333333333333 128S122.1333333333333 117.3333333333334 128 117.3333333333334S138.6666666666667 122.1333333333334 138.6666666666667 128S133.8666666666667 138.6666666666667 128 138.6666666666667z" />
    <glyph glyph-name="ic_album_48px"
      unicode="&#xEA55;"
      horiz-adv-x="256" d="M128 234.6666666666667C69.0666666666667 234.6666666666667 21.3333333333333 186.9333333333333 21.3333333333333 128S69.0666666666667 21.3333333333333 128 21.3333333333333S234.6666666666667 69.0666666666667 234.6666666666667 128S186.9333333333333 234.6666666666667 128 234.6666666666667zM128 80C101.4933333333333 80 80 101.4933333333333 80 128S101.4933333333333 176 128 176S176 154.5066666666667 176 128S154.5066666666667 80 128 80zM128 138.6666666666667C122.1333333333333 138.6666666666667 117.3333333333333 133.8666666666667 117.3333333333333 128S122.1333333333333 117.3333333333334 128 117.3333333333334S138.6666666666667 122.1333333333334 138.6666666666667 128S133.8666666666667 138.6666666666667 128 138.6666666666667z" />
    <glyph glyph-name="ic_all_inclusive_24px"
      unicode="&#xEA56;"
      horiz-adv-x="256" d="M198.4 185.3866666666667C183.04 185.3866666666667 168.5333333333333 179.4133333333334 158.1866666666667 169.0666666666667L128 142.2933333333334L111.7866666666667 128H111.8933333333333L83.2 102.5066666666667C76.3733333333333 95.68 67.3066666666667 91.9466666666667 57.6 91.9466666666667C37.6533333333333 91.9466666666667 21.44 108.0533333333333 21.44 128S37.6533333333333 164.0533333333334 57.6 164.0533333333334C67.3066666666667 164.0533333333334 76.3733333333333 160.32 83.6266666666667 153.0666666666667L95.68 142.4L111.7866666666667 156.6933333333333L98.3466666666667 168.5333333333334C87.4666666666667 179.4133333333334 72.96 185.3866666666667 57.6 185.3866666666667C25.8133333333333 185.3866666666667 0 159.5733333333334 0 128S25.8133333333333 70.6133333333334 57.6 70.6133333333334C72.96 70.6133333333334 87.4666666666667 76.5866666666667 97.8133333333333 86.9333333333333L128 113.6L128.1066666666667 113.4933333333334L144.2133333333333 128H144.1066666666667L172.8 153.4933333333334C179.6266666666666 160.32 188.6933333333333 164.0533333333334 198.4 164.0533333333334C218.3466666666666 164.0533333333334 234.56 147.9466666666667 234.56 128S218.3466666666666 91.9466666666667 198.4 91.9466666666667C188.8 91.9466666666667 179.6266666666666 95.68 172.3733333333333 102.9333333333334L160.2133333333333 113.7066666666667L144.1066666666667 99.4133333333334L157.6533333333333 87.4666666666667C168.5333333333333 76.6933333333334 182.9333333333333 70.7200000000001 198.4 70.7200000000001C230.1866666666667 70.7200000000001 256 96.4266666666667 256 128.1066666666667S230.1866666666667 185.3866666666667 198.4 185.3866666666667z" />
    <glyph glyph-name="ic_all_inclusive_48px"
      unicode="&#xEA57;"
      horiz-adv-x="256" d="M198.4 185.3333333333334C183.04 185.3333333333334 168.5333333333333 179.36 158.1333333333333 168.96L128 142.2933333333334L127.9466666666667 142.3466666666667L111.7866666666667 128.1066666666667L111.8933333333334 128L83.1466666666667 102.5066666666667C76.32 95.7333333333334 67.2533333333334 92 57.6 92C37.6533333333333 92 21.44 108.16 21.44 128S37.6533333333333 164 57.6 164C67.2533333333334 164 76.32 160.2666666666667 83.6266666666667 153.0133333333334L95.7333333333333 142.2933333333334L111.84 156.5333333333334L98.3466666666667 168.48C87.4666666666667 179.3066666666667 73.0133333333333 185.28 57.6 185.28C25.8133333333333 185.3333333333334 0 159.6266666666667 0 128S25.8133333333333 70.6666666666667 57.6 70.6666666666667C72.96 70.6666666666667 87.4133333333333 76.64 97.8666666666667 86.9866666666667L128 113.7066666666667L128.0533333333334 113.6533333333333L144.16 127.9466666666667L144.1066666666667 128L172.8533333333333 153.44C179.68 160.2666666666667 188.7466666666667 164 198.4 164C218.3466666666666 164 234.56 147.84 234.56 128S218.3466666666666 92 198.4 92C188.7466666666667 92 179.68 95.7333333333333 172.3733333333333 102.9333333333333L160.2666666666667 113.6533333333333L144.16 99.36L157.6533333333333 87.4133333333334C168.5333333333333 76.5866666666667 182.9866666666667 70.6666666666667 198.3466666666667 70.6666666666667C230.1866666666667 70.6666666666667 256 96.3733333333333 256 128S230.1866666666667 185.3333333333333 198.4 185.3333333333333z" />
    <glyph glyph-name="ic_all_out_24px"
      unicode="&#xEA58;"
      horiz-adv-x="256" d="M172.9066666666667 211.6266666666667L215.5733333333333 168.96V211.6266666666667zM215.5733333333333 83.6266666666667L172.9066666666667 40.96H215.5733333333333zM87.5733333333333 40.96L44.9066666666667 83.6266666666667V40.96zM44.9066666666667 168.96L87.5733333333333 211.6266666666667H44.9066666666667zM183.04 179.0933333333333C153.92 208.2133333333334 106.56 208.2133333333334 77.44 179.0933333333333S48.32 102.6133333333334 77.44 73.4933333333333S153.92 44.3733333333333 183.04 73.4933333333333S212.16 149.8666666666667 183.04 179.0933333333333zM171.3066666666667 85.2266666666667C148.5866666666667 62.5066666666667 111.8933333333334 62.5066666666667 89.1733333333334 85.2266666666667S66.4533333333334 144.64 89.1733333333334 167.36S148.5866666666667 190.08 171.3066666666667 167.36S194.0266666666667 107.9466666666667 171.3066666666667 85.2266666666667z" />
    <glyph glyph-name="ic_all_out_48px"
      unicode="&#xEA59;"
      horiz-adv-x="256" d="M170.6666666666667 213.3333333333334L213.3333333333333 170.6666666666667V213.3333333333334zM213.3333333333333 85.3333333333333L170.6666666666667 42.6666666666667H213.3333333333333zM85.3333333333333 42.6666666666667L42.6666666666667 85.3333333333333V42.6666666666667zM42.6666666666667 170.6666666666667L85.3333333333333 213.3333333333334H42.6666666666667zM180.8 180.8C151.6266666666667 209.9733333333334 104.3733333333333 209.9733333333334 75.2 180.8S46.0266666666667 104.3733333333333 75.2 75.2S151.6266666666667 46.0266666666667 180.8 75.2S209.9733333333333 151.6266666666667 180.8 180.8zM169.0666666666667 86.9333333333333C146.4 64.2666666666667 109.6 64.2666666666667 86.9333333333333 86.9333333333333S64.2666666666667 146.4 86.9333333333333 169.0666666666667S146.4 191.7333333333333 169.0666666666667 169.0666666666667S191.7333333333333 109.6 169.0666666666667 86.9333333333333z" />
    <glyph glyph-name="ic_android_24px"
      unicode="&#xEA5A;"
      horiz-adv-x="256" d="M64 64C64 58.1333333333333 68.8 53.3333333333333 74.6666666666667 53.3333333333333H85.3333333333333V16C85.3333333333333 7.1466666666667 92.48 0 101.3333333333333 0S117.3333333333334 7.1466666666667 117.3333333333334 16V53.3333333333333H138.6666666666667V16C138.6666666666667 7.1466666666667 145.8133333333334 0 154.6666666666667 0S170.6666666666667 7.1466666666667 170.6666666666667 16V53.3333333333333H181.3333333333334C187.2 53.3333333333333 192 58.1333333333334 192 64V170.6666666666667H64V64zM37.3333333333333 170.6666666666667C28.48 170.6666666666667 21.3333333333333 163.52 21.3333333333333 154.6666666666667V80C21.3333333333333 71.1466666666667 28.48 64 37.3333333333333 64S53.3333333333333 71.1466666666667 53.3333333333333 80V154.6666666666667C53.3333333333333 163.52 46.1866666666667 170.6666666666667 37.3333333333333 170.6666666666667zM218.6666666666666 170.6666666666667C209.8133333333333 170.6666666666667 202.6666666666666 163.52 202.6666666666666 154.6666666666667V80C202.6666666666666 71.1466666666667 209.8133333333333 64 218.6666666666666 64S234.6666666666667 71.1466666666667 234.6666666666667 80V154.6666666666667C234.6666666666667 163.52 227.52 170.6666666666667 218.6666666666666 170.6666666666667zM165.6533333333333 232.96L179.52 246.8266666666667C181.6533333333333 248.96 181.6533333333333 252.2666666666667 179.52 254.4C177.3866666666667 256.5333333333334 174.08 256.5333333333334 171.9466666666667 254.4L156.16 238.6133333333334C147.7333333333333 242.88 138.1333333333333 245.3333333333334 128 245.3333333333334C117.76 245.3333333333334 108.16 242.88 99.6266666666667 238.6133333333334L83.7333333333333 254.4C81.6 256.5333333333334 78.2933333333333 256.5333333333334 76.16 254.4C74.0266666666666 252.2666666666667 74.0266666666666 248.96 76.16 246.8266666666667L90.1333333333333 232.8533333333333C74.3466666666667 221.2266666666667 64 202.56 64 181.3333333333334H192C192 202.56 181.6533333333333 221.3333333333334 165.6533333333333 232.96zM106.6666666666667 202.6666666666667H96V213.3333333333334H106.6666666666667V202.6666666666667zM160 202.6666666666667H149.3333333333334V213.3333333333334H160V202.6666666666667z" />
    </font>
</defs>
</svg>
